<svg width="24" height="24" viewBox="0 0 24 24" fill="none" xmlns="http://www.w3.org/2000/svg">
<path d="M12.5004 7.5C16.3467 7.5 19.4647 6.38071 19.4647 5C19.4647 3.61929 16.3467 2.5 12.5004 2.5C8.65415 2.5 5.53613 3.61929 5.53613 5C5.53613 6.38071 8.65415 7.5 12.5004 7.5Z" stroke="black" stroke-width="1.2" stroke-linecap="round" stroke-linejoin="round"/>
<path d="M5.53613 5V18C5.53613 19.38 8.65399 20.5 12.5004 20.5C16.3468 20.5 19.4647 19.38 19.4647 18V5" stroke="black" stroke-width="1.2" stroke-linecap="round" stroke-linejoin="round"/>
<path d="M19.4647 14C19.4647 15.38 16.3468 16.5 12.5004 16.5C8.65399 16.5 5.53613 15.38 5.53613 14" stroke="black" stroke-width="1.2" stroke-linecap="round" stroke-linejoin="round"/>
<path d="M19.4647 9.5C19.4647 10.88 16.3468 12 12.5004 12C8.65399 12 5.53613 10.88 5.53613 9.5" stroke="black" stroke-width="1.2" stroke-linecap="round" stroke-linejoin="round"/>
<circle cx="17" cy="16" r="5.4" fill="#F8F8F8" stroke="black" stroke-width="1.2"/>
<path fill-rule="evenodd" clip-rule="evenodd" d="M17.3074 14.0004L16.6927 14L16.2357 15.4705H15.4068L14.9501 14L14.3356 14.1866L14.7344 15.4705H14V16.1697H14.9517L15.5142 17.9804H16.1287L16.691 16.1697H17.3054L17.8712 18H18.486L19.0516 16.1697H20V15.4705H19.2676L19.6645 14.1862L19.0497 14.0004L18.5953 15.4705H17.7616L17.3074 14.0004ZM17.9776 16.1697L18.1783 16.8193L18.3791 16.1697H17.9776ZM17.0893 15.4705L16.9989 15.1781L16.9081 15.4705H17.0893ZM16.0184 16.1697H15.624L15.8212 16.8045L16.0184 16.1697Z" fill="black"/>
</svg>
