<svg width="32" height="20" viewBox="0 0 32 20" fill="none" xmlns="http://www.w3.org/2000/svg">
<path d="M19.3092 4.10352H12.7183V15.8965H19.3092V4.10352Z" fill="#FF5F00"/>
<path d="M13.1303 10C13.1293 8.86425 13.3877 7.74315 13.8862 6.72157C14.3846 5.69999 15.11 4.80471 16.0073 4.1035C14.8961 3.23384 13.5616 2.69302 12.1562 2.54283C10.7509 2.39265 9.33152 2.63917 8.06027 3.25422C6.78901 3.86928 5.7172 4.82805 4.96734 6.02094C4.21748 7.21383 3.81982 8.59272 3.81982 10C3.81982 11.4073 4.21748 12.7862 4.96734 13.9791C5.7172 15.172 6.78901 16.1307 8.06027 16.7458C9.33152 17.3608 10.7509 17.6073 12.1562 17.4572C13.5616 17.307 14.8961 16.7662 16.0073 15.8965C15.11 15.1953 14.3846 14.3 13.8862 13.2784C13.3878 12.2568 13.1293 11.1357 13.1303 10Z" fill="#EB001B"/>
<path d="M28.1944 10C28.1945 11.4073 27.7969 12.7861 27.047 13.979C26.2972 15.1719 25.2254 16.1307 23.9542 16.7458C22.683 17.3608 21.2636 17.6073 19.8583 17.4572C18.453 17.307 17.1185 16.7662 16.0073 15.8965C16.9039 15.1946 17.6286 14.2992 18.127 13.2777C18.6254 12.2563 18.8843 11.1356 18.8843 10C18.8843 8.86443 18.6254 7.74368 18.127 6.72226C17.6286 5.70084 16.9039 4.80542 16.0073 4.1035C17.1185 3.23384 18.453 2.69301 19.8583 2.54283C21.2636 2.39265 22.683 2.63918 23.9542 3.25424C25.2254 3.8693 26.2972 4.82807 27.047 6.02097C27.7969 7.21386 28.1945 8.59274 28.1944 10Z" fill="#F79E1B"/>
</svg>
