<svg width="24" height="24" viewBox="0 0 24 24" fill="none" xmlns="http://www.w3.org/2000/svg">
<path fill-rule="evenodd" clip-rule="evenodd" d="M16.4724 3.59961C14.132 3.59961 12.7656 5.2109 11.9999 5.98858C11.2342 5.2109 9.84664 3.59961 7.5749 3.59961C4.30797 3.59961 2.3999 6.26549 2.3999 9.46239C2.3999 11.3209 3.16389 13.2413 4.60933 15.0159C6.18886 16.9553 8.5655 18.7402 11.6732 20.3209C11.7764 20.3734 11.8881 20.3996 11.9999 20.3996C12.1117 20.3996 12.2234 20.3734 12.3266 20.3209C15.4343 18.7402 17.8109 16.9553 19.3905 15.0159C20.8359 13.2413 21.5999 11.3209 21.5999 9.46239C21.5999 6.2675 19.705 3.59961 16.4724 3.59961Z" fill="white" stroke="white"/>
</svg>
