<svg width="16" height="16" viewBox="0 0 16 16" fill="none" xmlns="http://www.w3.org/2000/svg">
<path fill-rule="evenodd" clip-rule="evenodd" d="M8 1C11.866 1 15 4.13401 15 8C15 11.866 11.866 15 8 15C4.13401 15 1 11.866 1 8C1 4.13401 4.13401 1 8 1ZM8 2C4.68629 2 2 4.68629 2 8C2 11.3137 4.68629 14 8 14C11.3137 14 14 11.3137 14 8C14 4.68629 11.3137 2 8 2ZM8.426 9.36439C8.30157 8.42283 8.66316 8.12644 9.04024 7.81736C9.39044 7.53031 9.754 7.23231 9.754 6.39639C9.754 5.43639 9.026 4.89239 8.082 4.85239C7.29 4.81239 6.338 5.26839 6.25 6.68439H7.25C7.29 6.04439 7.602 5.74039 8.05 5.74039C8.498 5.74039 8.69 6.06039 8.69 6.47639C8.69 6.89288 8.46034 7.10409 8.20192 7.34174C7.81505 7.69753 7.36372 8.11258 7.522 9.36439H8.426ZM8.554 11.1564V10.0204H7.386V11.1564H8.554Z" fill="#666666"/>
</svg>
