<svg width="20" height="20" viewBox="0 0 20 20" fill="none" xmlns="http://www.w3.org/2000/svg">
<path d="M3.90085 12.5328L4.04451 11.9436C2.73255 11.2434 1.9842 10.337 1.9829 9.43473C1.9816 8.48576 2.8059 7.52869 4.24463 6.80899C5.77596 6.04286 7.8181 5.57623 9.99459 5.57147C12.1711 5.56671 14.2143 6.02453 15.7478 6.78375C17.1885 7.49727 18.0156 8.45076 18.0171 9.39973C18.0184 10.3487 17.1941 11.3058 15.7554 12.0255C14.224 12.7916 12.1819 13.2161 10.0054 13.2209L10.0039 12.1167L8.23609 13.5623L10.008 15L10.0063 13.8344C14.7727 13.8239 18.5035 11.8755 18.5 9.39854C18.4965 6.9216 14.7664 4.98957 10 5.00004C5.23357 5.01052 1.49654 6.95898 1.5 9.43592C1.50173 10.6563 2.40997 11.7443 3.90085 12.5328Z" fill="black" stroke="black" stroke-width="0.5"/>
</svg>
