<svg width="24" height="24" viewBox="0 0 24 24" fill="none" xmlns="http://www.w3.org/2000/svg">
<path d="M2.17421 4.14981C2.08254 3.54475 2.55096 3 3.16293 3H20.8371C21.449 3 21.9175 3.54475 21.8258 4.14981L20.4622 13.1498C20.3881 13.6387 19.9679 14 19.4734 14H4.52656C4.03213 14 3.61192 13.6387 3.53785 13.1498L2.17421 4.14981Z" stroke="#121619" stroke-width="1.2"/>
<path d="M6 6H14" stroke="#121619" stroke-width="1.2" stroke-linecap="round"/>
<path d="M6 9H9" stroke="#121619" stroke-width="1.2" stroke-linecap="round"/>
<path d="M2.29324 19.7684C2.14363 20.3968 2.62011 21 3.26605 21H20.734C21.3799 21 21.8564 20.3968 21.7068 19.7684L20.5163 14.7684C20.409 14.3179 20.0065 14 19.5435 14H4.45652C3.99346 14 3.59097 14.3179 3.48372 14.7684L2.29324 19.7684Z" stroke="#121619" stroke-width="1.2"/>
</svg>
