<svg width="24" height="24" viewBox="0 0 24 24" fill="none" xmlns="http://www.w3.org/2000/svg">
<rect opacity="0.01" x="0.5" y="0.5" width="23" height="23" fill="#FF0000" stroke="black"/>
<mask id="mask0_2481_104473" style="mask-type:luminance" maskUnits="userSpaceOnUse" x="0" y="0" width="24" height="24">
<rect x="0.5" y="0.5" width="23" height="23" fill="white" stroke="white"/>
</mask>
<g mask="url(#mask0_2481_104473)">
<path d="M19.6824 10.1487V9.54872H19.0824V10.1487H19.6824ZM19.7824 10.1487H20.3824V9.54872H19.7824V10.1487ZM11.5067 20.2909H10.9067V20.8909H11.5067V20.2909ZM11.5067 20.1909V19.5909H10.9067V20.1909H11.5067ZM7.6166 15.3746V15.9746H8.2166V15.3746H7.6166ZM7.5166 15.3746H6.9166V15.9746H7.5166V15.3746ZM13.079 2.85254H13.679V2.25254H13.079V2.85254ZM13.079 2.95254V3.55254H13.679V2.95254H13.079ZM19.0824 10.1487V18.0289H20.2824V10.1487H19.0824ZM19.7824 9.54872H19.6824V10.7487H19.7824V9.54872ZM20.3824 18.0289V10.1487H19.1824V18.0289H20.3824ZM17.7047 20.8909C19.2359 20.8909 20.3824 19.5548 20.3824 18.0289H19.1824C19.1824 18.9932 18.4764 19.6909 17.7047 19.6909V20.8909ZM17.6886 20.8909H17.7047V19.6909H17.6886V20.8909ZM17.6725 20.8909H17.6886V19.6909H17.6725V20.8909ZM17.6564 20.8909H17.6725V19.6909H17.6564V20.8909ZM17.6403 20.8909H17.6564V19.6909H17.6403V20.8909ZM17.6242 20.8909H17.6403V19.6909H17.6242V20.8909ZM17.6081 20.8909H17.6242V19.6909H17.6081V20.8909ZM17.5921 20.8909H17.6081V19.6909H17.5921V20.8909ZM17.5761 20.8909H17.5921V19.6909H17.5761V20.8909ZM17.5601 20.8909H17.5761V19.6909H17.5601V20.8909ZM17.5441 20.8909H17.5601V19.6909H17.5441V20.8909ZM17.5281 20.8909H17.5441V19.6909H17.5281V20.8909ZM17.5122 20.8909H17.5281V19.6909H17.5122V20.8909ZM17.4962 20.8909H17.5122V19.6909H17.4962V20.8909ZM17.4803 20.8909H17.4962V19.6909H17.4803V20.8909ZM17.4644 20.8909H17.4803V19.6909H17.4644V20.8909ZM17.4485 20.8909H17.4644V19.6909H17.4485V20.8909ZM17.4326 20.8909H17.4485V19.6909H17.4326V20.8909ZM17.4167 20.8909H17.4326V19.6909H17.4167V20.8909ZM17.4009 20.8909H17.4167V19.6909H17.4009V20.8909ZM17.385 20.8909H17.4009V19.6909H17.385V20.8909ZM17.3692 20.8909H17.385V19.6909H17.3692V20.8909ZM17.3534 20.8909H17.3692V19.6909H17.3534V20.8909ZM17.3376 20.8909H17.3534V19.6909H17.3376V20.8909ZM17.3219 20.8909H17.3376V19.6909H17.3219V20.8909ZM17.3061 20.8909H17.3219V19.6909H17.3061V20.8909ZM17.2904 20.8909H17.3061V19.6909H17.2904V20.8909ZM17.2747 20.8909H17.2904V19.6909H17.2747V20.8909ZM17.2589 20.8909H17.2747V19.6909H17.2589V20.8909ZM17.2433 20.8909H17.2589V19.6909H17.2433V20.8909ZM17.2276 20.8909H17.2433V19.6909H17.2276V20.8909ZM17.2119 20.8909H17.2276V19.6909H17.2119V20.8909ZM17.1963 20.8909H17.2119V19.6909H17.1963V20.8909ZM17.1806 20.8909H17.1963V19.6909H17.1806V20.8909ZM17.165 20.8909H17.1806V19.6909H17.165V20.8909ZM17.1494 20.8909H17.165V19.6909H17.1494V20.8909ZM17.1339 20.8909H17.1494V19.6909H17.1339V20.8909ZM17.1183 20.8909H17.1339V19.6909H17.1183V20.8909ZM17.1027 20.8909H17.1183V19.6909H17.1027V20.8909ZM17.0872 20.8909H17.1027V19.6909H17.0872V20.8909ZM17.0717 20.8909H17.0872V19.6909H17.0717V20.8909ZM17.0562 20.8909H17.0717V19.6909H17.0562V20.8909ZM17.0407 20.8909H17.0562V19.6909H17.0407V20.8909ZM17.0252 20.8909H17.0407V19.6909H17.0252V20.8909ZM17.0098 20.8909H17.0252V19.6909H17.0098V20.8909ZM16.9943 20.8909H17.0098V19.6909H16.9943V20.8909ZM16.9789 20.8909H16.9943V19.6909H16.9789V20.8909ZM16.9635 20.8909H16.9789V19.6909H16.9635V20.8909ZM16.9481 20.8909H16.9635V19.6909H16.9481V20.8909ZM16.9327 20.8909H16.9481V19.6909H16.9327V20.8909ZM16.9174 20.8909H16.9327V19.6909H16.9174V20.8909ZM16.902 20.8909H16.9174V19.6909H16.902V20.8909ZM16.8867 20.8909H16.902V19.6909H16.8867V20.8909ZM16.8714 20.8909H16.8867V19.6909H16.8714V20.8909ZM16.8561 20.8909H16.8714V19.6909H16.8561V20.8909ZM16.8408 20.8909H16.8561V19.6909H16.8408V20.8909ZM16.8255 20.8909H16.8408V19.6909H16.8255V20.8909ZM16.8103 20.8909H16.8255V19.6909H16.8103V20.8909ZM16.7951 20.8909H16.8103V19.6909H16.7951V20.8909ZM16.7798 20.8909H16.7951V19.6909H16.7798V20.8909ZM16.7646 20.8909H16.7798V19.6909H16.7646V20.8909ZM16.7495 20.8909H16.7646V19.6909H16.7495V20.8909ZM16.7343 20.8909H16.7495V19.6909H16.7343V20.8909ZM16.7191 20.8909H16.7343V19.6909H16.7191V20.8909ZM16.704 20.8909H16.7191V19.6909H16.704V20.8909ZM16.6889 20.8909H16.704V19.6909H16.6889V20.8909ZM16.6738 20.8909H16.6889V19.6909H16.6738V20.8909ZM16.6587 20.8909H16.6738V19.6909H16.6587V20.8909ZM16.6436 20.8909H16.6587V19.6909H16.6436V20.8909ZM16.6285 20.8909H16.6436V19.6909H16.6285V20.8909ZM16.6135 20.8909H16.6285V19.6909H16.6135V20.8909ZM16.5984 20.8909H16.6135V19.6909H16.5984V20.8909ZM16.5834 20.8909H16.5984V19.6909H16.5834V20.8909ZM16.5684 20.8909H16.5834V19.6909H16.5684V20.8909ZM16.5535 20.8909H16.5684V19.6909H16.5535V20.8909ZM16.5385 20.8909H16.5535V19.6909H16.5385V20.8909ZM16.5235 20.8909H16.5385V19.6909H16.5235V20.8909ZM16.5086 20.8909H16.5235V19.6909H16.5086V20.8909ZM16.4937 20.8909H16.5086V19.6909H16.4937V20.8909ZM16.4788 20.8909H16.4937V19.6909H16.4788V20.8909ZM16.4639 20.8909H16.4788V19.6909H16.4639V20.8909ZM16.449 20.8909H16.4639V19.6909H16.449V20.8909ZM16.4342 20.8909H16.449V19.6909H16.4342V20.8909ZM16.4193 20.8909H16.4342V19.6909H16.4193V20.8909ZM16.4045 20.8909H16.4193V19.6909H16.4045V20.8909ZM16.3897 20.8909H16.4045V19.6909H16.3897V20.8909ZM16.3749 20.8909H16.3897V19.6909H16.3749V20.8909ZM16.3601 20.8909H16.3749V19.6909H16.3601V20.8909ZM16.3454 20.8909H16.3601V19.6909H16.3454V20.8909ZM16.3306 20.8909H16.3454V19.6909H16.3306V20.8909ZM16.3159 20.8909H16.3306V19.6909H16.3159V20.8909ZM16.3012 20.8909H16.3159V19.6909H16.3012V20.8909ZM16.2865 20.8909H16.3012V19.6909H16.2865V20.8909ZM16.2718 20.8909H16.2865V19.6909H16.2718V20.8909ZM16.2571 20.8909H16.2718V19.6909H16.2571V20.8909ZM16.2425 20.8909H16.2571V19.6909H16.2425V20.8909ZM16.2278 20.8909H16.2425V19.6909H16.2278V20.8909ZM16.2132 20.8909H16.2278V19.6909H16.2132V20.8909ZM16.1986 20.8909H16.2132V19.6909H16.1986V20.8909ZM16.184 20.8909H16.1986V19.6909H16.184V20.8909ZM16.1695 20.8909H16.184V19.6909H16.1695V20.8909ZM16.1549 20.8909H16.1695V19.6909H16.1549V20.8909ZM16.1404 20.8909H16.1549V19.6909H16.1404V20.8909ZM16.1258 20.8909H16.1404V19.6909H16.1258V20.8909ZM16.1113 20.8909H16.1258V19.6909H16.1113V20.8909ZM16.0968 20.8909H16.1113V19.6909H16.0968V20.8909ZM16.0823 20.8909H16.0968V19.6909H16.0823V20.8909ZM16.0679 20.8909H16.0823V19.6909H16.0679V20.8909ZM16.0534 20.8909H16.0679V19.6909H16.0534V20.8909ZM16.039 20.8909H16.0534V19.6909H16.039V20.8909ZM16.0246 20.8909H16.039V19.6909H16.0246V20.8909ZM16.0102 20.8909H16.0246V19.6909H16.0102V20.8909ZM15.9958 20.8909H16.0102V19.6909H15.9958V20.8909ZM15.9814 20.8909H15.9958V19.6909H15.9814V20.8909ZM15.9671 20.8909H15.9814V19.6909H15.9671V20.8909ZM15.9528 20.8909H15.9671V19.6909H15.9528V20.8909ZM15.9384 20.8909H15.9528V19.6909H15.9384V20.8909ZM15.9241 20.8909H15.9384V19.6909H15.9241V20.8909ZM15.9098 20.8909H15.9241V19.6909H15.9098V20.8909ZM15.8956 20.8909H15.9098V19.6909H15.8956V20.8909ZM15.8813 20.8909H15.8956V19.6909H15.8813V20.8909ZM15.8671 20.8909H15.8813V19.6909H15.8671V20.8909ZM15.8528 20.8909H15.8671V19.6909H15.8528V20.8909ZM15.8386 20.8909H15.8528V19.6909H15.8386V20.8909ZM15.8244 20.8909H15.8386V19.6909H15.8244V20.8909ZM15.8103 20.8909H15.8244V19.6909H15.8103V20.8909ZM15.7961 20.8909H15.8103V19.6909H15.7961V20.8909ZM15.782 20.8909H15.7961V19.6909H15.782V20.8909ZM15.7678 20.8909H15.782V19.6909H15.7678V20.8909ZM15.7537 20.8909H15.7678V19.6909H15.7537V20.8909ZM15.7396 20.8909H15.7537V19.6909H15.7396V20.8909ZM15.7255 20.8909H15.7396V19.6909H15.7255V20.8909ZM15.7115 20.8909H15.7255V19.6909H15.7115V20.8909ZM15.6974 20.8909H15.7115V19.6909H15.6974V20.8909ZM15.6834 20.8909H15.6974V19.6909H15.6834V20.8909ZM15.6694 20.8909H15.6834V19.6909H15.6694V20.8909ZM15.6553 20.8909H15.6694V19.6909H15.6553V20.8909ZM15.6414 20.8909H15.6553V19.6909H15.6414V20.8909ZM15.6274 20.8909H15.6414V19.6909H15.6274V20.8909ZM15.6134 20.8909H15.6274V19.6909H15.6134V20.8909ZM15.5995 20.8909H15.6134V19.6909H15.5995V20.8909ZM15.5856 20.8909H15.5995V19.6909H15.5856V20.8909ZM15.5716 20.8909H15.5856V19.6909H15.5716V20.8909ZM15.5578 20.8909H15.5716V19.6909H15.5578V20.8909ZM15.5439 20.8909H15.5578V19.6909H15.5439V20.8909ZM15.53 20.8909H15.5439V19.6909H15.53V20.8909ZM15.5162 20.8909H15.53V19.6909H15.5162V20.8909ZM15.5023 20.8909H15.5162V19.6909H15.5023V20.8909ZM15.4885 20.8909H15.5023V19.6909H15.4885V20.8909ZM15.4747 20.8909H15.4885V19.6909H15.4747V20.8909ZM15.4609 20.8909H15.4747V19.6909H15.4609V20.8909ZM15.4472 20.8909H15.4609V19.6909H15.4472V20.8909ZM15.4334 20.8909H15.4472V19.6909H15.4334V20.8909ZM15.4197 20.8909H15.4334V19.6909H15.4197V20.8909ZM15.406 20.8909H15.4197V19.6909H15.406V20.8909ZM15.3922 20.8909H15.406V19.6909H15.3922V20.8909ZM15.3786 20.8909H15.3922V19.6909H15.3786V20.8909ZM15.3649 20.8909H15.3786V19.6909H15.3649V20.8909ZM15.3512 20.8909H15.3649V19.6909H15.3512V20.8909ZM15.3376 20.8909H15.3512V19.6909H15.3376V20.8909ZM15.324 20.8909H15.3376V19.6909H15.324V20.8909ZM15.3103 20.8909H15.324V19.6909H15.3103V20.8909ZM15.2968 20.8909H15.3103V19.6909H15.2968V20.8909ZM15.2832 20.8909H15.2968V19.6909H15.2832V20.8909ZM15.2696 20.8909H15.2832V19.6909H15.2696V20.8909ZM15.2561 20.8909H15.2696V19.6909H15.2561V20.8909ZM15.2425 20.8909H15.2561V19.6909H15.2425V20.8909ZM15.229 20.8909H15.2425V19.6909H15.229V20.8909ZM15.2155 20.8909H15.229V19.6909H15.2155V20.8909ZM15.202 20.8909H15.2155V19.6909H15.202V20.8909ZM15.1886 20.8909H15.202V19.6909H15.1886V20.8909ZM15.1751 20.8909H15.1886V19.6909H15.1751V20.8909ZM15.1617 20.8909H15.1751V19.6909H15.1617V20.8909ZM15.1482 20.8909H15.1617V19.6909H15.1482V20.8909ZM15.1348 20.8909H15.1482V19.6909H15.1348V20.8909ZM15.1215 20.8909H15.1348V19.6909H15.1215V20.8909ZM15.1081 20.8909H15.1215V19.6909H15.1081V20.8909ZM15.0947 20.8909H15.1081V19.6909H15.0947V20.8909ZM15.0814 20.8909H15.0947V19.6909H15.0814V20.8909ZM15.068 20.8909H15.0814V19.6909H15.068V20.8909ZM15.0547 20.8909H15.068V19.6909H15.0547V20.8909ZM15.0414 20.8909H15.0547V19.6909H15.0414V20.8909ZM15.0282 20.8909H15.0414V19.6909H15.0282V20.8909ZM15.0149 20.8909H15.0282V19.6909H15.0149V20.8909ZM15.0016 20.8909H15.0149V19.6909H15.0016V20.8909ZM14.9884 20.8909H15.0016V19.6909H14.9884V20.8909ZM14.9752 20.8909H14.9884V19.6909H14.9752V20.8909ZM14.962 20.8909H14.9752V19.6909H14.962V20.8909ZM14.9488 20.8909H14.962V19.6909H14.9488V20.8909ZM14.9356 20.8909H14.9488V19.6909H14.9356V20.8909ZM14.9225 20.8909H14.9356V19.6909H14.9225V20.8909ZM14.9094 20.8909H14.9225V19.6909H14.9094V20.8909ZM14.8962 20.8909H14.9094V19.6909H14.8962V20.8909ZM14.8831 20.8909H14.8962V19.6909H14.8831V20.8909ZM14.87 20.8909H14.8831V19.6909H14.87V20.8909ZM14.857 20.8909H14.87V19.6909H14.857V20.8909ZM14.8439 20.8909H14.857V19.6909H14.8439V20.8909ZM14.8309 20.8909H14.8439V19.6909H14.8309V20.8909ZM14.8178 20.8909H14.8309V19.6909H14.8178V20.8909ZM14.8048 20.8909H14.8178V19.6909H14.8048V20.8909ZM14.7918 20.8909H14.8048V19.6909H14.7918V20.8909ZM14.7788 20.8909H14.7918V19.6909H14.7788V20.8909ZM14.7659 20.8909H14.7788V19.6909H14.7659V20.8909ZM14.7529 20.8909H14.7659V19.6909H14.7529V20.8909ZM14.74 20.8909H14.7529V19.6909H14.74V20.8909ZM14.7271 20.8909H14.74V19.6909H14.7271V20.8909ZM14.7142 20.8909H14.7271V19.6909H14.7142V20.8909ZM14.7013 20.8909H14.7142V19.6909H14.7013V20.8909ZM14.6884 20.8909H14.7013V19.6909H14.6884V20.8909ZM14.6756 20.8909H14.6884V19.6909H14.6756V20.8909ZM14.6627 20.8909H14.6756V19.6909H14.6627V20.8909ZM14.6499 20.8909H14.6627V19.6909H14.6499V20.8909ZM14.6371 20.8909H14.6499V19.6909H14.6371V20.8909ZM14.6243 20.8909H14.6371V19.6909H14.6243V20.8909ZM14.6115 20.8909H14.6243V19.6909H14.6115V20.8909ZM14.5988 20.8909H14.6115V19.6909H14.5988V20.8909ZM14.586 20.8909H14.5988V19.6909H14.586V20.8909ZM14.5733 20.8909H14.586V19.6909H14.5733V20.8909ZM14.5606 20.8909H14.5733V19.6909H14.5606V20.8909ZM14.5479 20.8909H14.5606V19.6909H14.5479V20.8909ZM14.5352 20.8909H14.5479V19.6909H14.5352V20.8909ZM14.5225 20.8909H14.5352V19.6909H14.5225V20.8909ZM14.5099 20.8909H14.5225V19.6909H14.5099V20.8909ZM14.4973 20.8909H14.5099V19.6909H14.4973V20.8909ZM14.4846 20.8909H14.4973V19.6909H14.4846V20.8909ZM14.472 20.8909H14.4846V19.6909H14.472V20.8909ZM14.4595 20.8909H14.472V19.6909H14.4595V20.8909ZM14.4469 20.8909H14.4595V19.6909H14.4469V20.8909ZM14.4343 20.8909H14.4469V19.6909H14.4343V20.8909ZM14.4218 20.8909H14.4343V19.6909H14.4218V20.8909ZM14.4093 20.8909H14.4218V19.6909H14.4093V20.8909ZM14.3968 20.8909H14.4093V19.6909H14.3968V20.8909ZM14.3843 20.8909H14.3968V19.6909H14.3843V20.8909ZM14.3718 20.8909H14.3843V19.6909H14.3718V20.8909ZM14.3593 20.8909H14.3718V19.6909H14.3593V20.8909ZM14.3469 20.8909H14.3593V19.6909H14.3469V20.8909ZM14.3345 20.8909H14.3469V19.6909H14.3345V20.8909ZM14.322 20.8909H14.3345V19.6909H14.322V20.8909ZM14.3097 20.8909H14.322V19.6909H14.3097V20.8909ZM14.2973 20.8909H14.3097V19.6909H14.2973V20.8909ZM14.2849 20.8909H14.2973V19.6909H14.2849V20.8909ZM14.2726 20.8909H14.2849V19.6909H14.2726V20.8909ZM14.2602 20.8909H14.2726V19.6909H14.2602V20.8909ZM14.2479 20.8909H14.2602V19.6909H14.2479V20.8909ZM14.2356 20.8909H14.2479V19.6909H14.2356V20.8909ZM14.2233 20.8909H14.2356V19.6909H14.2233V20.8909ZM14.211 20.8909H14.2233V19.6909H14.211V20.8909ZM14.1988 20.8909H14.211V19.6909H14.1988V20.8909ZM14.1865 20.8909H14.1988V19.6909H14.1865V20.8909ZM14.1743 20.8909H14.1865V19.6909H14.1743V20.8909ZM14.1621 20.8909H14.1743V19.6909H14.1621V20.8909ZM14.1499 20.8909H14.1621V19.6909H14.1499V20.8909ZM14.1377 20.8909H14.1499V19.6909H14.1377V20.8909ZM14.1256 20.8909H14.1377V19.6909H14.1256V20.8909ZM14.1134 20.8909H14.1256V19.6909H14.1134V20.8909ZM14.1013 20.8909H14.1134V19.6909H14.1013V20.8909ZM14.0892 20.8909H14.1013V19.6909H14.0892V20.8909ZM14.0771 20.8909H14.0892V19.6909H14.0771V20.8909ZM14.065 20.8909H14.0771V19.6909H14.065V20.8909ZM14.053 20.8909H14.065V19.6909H14.053V20.8909ZM14.0409 20.8909H14.053V19.6909H14.0409V20.8909ZM14.0289 20.8909H14.0409V19.6909H14.0289V20.8909ZM14.0168 20.8909H14.0289V19.6909H14.0168V20.8909ZM14.0048 20.8909H14.0168V19.6909H14.0048V20.8909ZM13.9929 20.8909H14.0048V19.6909H13.9929V20.8909ZM13.9809 20.8909H13.9929V19.6909H13.9809V20.8909ZM13.9689 20.8909H13.9809V19.6909H13.9689V20.8909ZM13.957 20.8909H13.9689V19.6909H13.957V20.8909ZM13.9451 20.8909H13.957V19.6909H13.9451V20.8909ZM13.9332 20.8909H13.9451V19.6909H13.9332V20.8909ZM13.9213 20.8909H13.9332V19.6909H13.9213V20.8909ZM13.9094 20.8909H13.9213V19.6909H13.9094V20.8909ZM13.8975 20.8909H13.9094V19.6909H13.8975V20.8909ZM13.8857 20.8909H13.8975V19.6909H13.8857V20.8909ZM13.8739 20.8909H13.8857V19.6909H13.8739V20.8909ZM13.862 20.8909H13.8739V19.6909H13.862V20.8909ZM13.8502 20.8909H13.862V19.6909H13.8502V20.8909ZM13.8385 20.8909H13.8502V19.6909H13.8385V20.8909ZM13.8267 20.8909H13.8385V19.6909H13.8267V20.8909ZM13.8149 20.8909H13.8267V19.6909H13.8149V20.8909ZM13.8032 20.8909H13.8149V19.6909H13.8032V20.8909ZM13.7915 20.8909H13.8032V19.6909H13.7915V20.8909ZM13.7798 20.8909H13.7915V19.6909H13.7798V20.8909ZM13.7681 20.8909H13.7798V19.6909H13.7681V20.8909ZM13.7564 20.8909H13.7681V19.6909H13.7564V20.8909ZM13.7448 20.8909H13.7564V19.6909H13.7448V20.8909ZM13.7331 20.8909H13.7448V19.6909H13.7331V20.8909ZM13.7215 20.8909H13.7331V19.6909H13.7215V20.8909ZM13.7099 20.8909H13.7215V19.6909H13.7099V20.8909ZM13.6983 20.8909H13.7099V19.6909H13.6983V20.8909ZM13.6867 20.8909H13.6983V19.6909H13.6867V20.8909ZM13.6752 20.8909H13.6867V19.6909H13.6752V20.8909ZM13.6636 20.8909H13.6752V19.6909H13.6636V20.8909ZM13.6521 20.8909H13.6636V19.6909H13.6521V20.8909ZM13.6406 20.8909H13.6521V19.6909H13.6406V20.8909ZM13.6291 20.8909H13.6406V19.6909H13.6291V20.8909ZM13.6176 20.8909H13.6291V19.6909H13.6176V20.8909ZM13.6061 20.8909H13.6176V19.6909H13.6061V20.8909ZM13.5947 20.8909H13.6061V19.6909H13.5947V20.8909ZM13.5832 20.8909H13.5947V19.6909H13.5832V20.8909ZM13.5718 20.8909H13.5832V19.6909H13.5718V20.8909ZM13.5604 20.8909H13.5718V19.6909H13.5604V20.8909ZM13.549 20.8909H13.5604V19.6909H13.549V20.8909ZM13.5376 20.8909H13.549V19.6909H13.5376V20.8909ZM13.5263 20.8909H13.5376V19.6909H13.5263V20.8909ZM13.515 20.8909H13.5263V19.6909H13.515V20.8909ZM13.5036 20.8909H13.515V19.6909H13.5036V20.8909ZM13.4923 20.8909H13.5036V19.6909H13.4923V20.8909ZM13.481 20.8909H13.4923V19.6909H13.481V20.8909ZM13.4697 20.8909H13.481V19.6909H13.4697V20.8909ZM13.4585 20.8909H13.4697V19.6909H13.4585V20.8909ZM13.4472 20.8909H13.4585V19.6909H13.4472V20.8909ZM13.436 20.8909H13.4472V19.6909H13.436V20.8909ZM13.4248 20.8909H13.436V19.6909H13.4248V20.8909ZM13.4136 20.8909H13.4248V19.6909H13.4136V20.8909ZM13.4024 20.8909H13.4136V19.6909H13.4024V20.8909ZM13.3912 20.8909H13.4024V19.6909H13.3912V20.8909ZM13.3801 20.8909H13.3912V19.6909H13.3801V20.8909ZM13.369 20.8909H13.3801V19.6909H13.369V20.8909ZM13.3578 20.8909H13.369V19.6909H13.3578V20.8909ZM13.3467 20.8909H13.3578V19.6909H13.3467V20.8909ZM13.3356 20.8909H13.3467V19.6909H13.3356V20.8909ZM13.3246 20.8909H13.3356V19.6909H13.3246V20.8909ZM13.3135 20.8909H13.3246V19.6909H13.3135V20.8909ZM13.3025 20.8909H13.3135V19.6909H13.3025V20.8909ZM13.2914 20.8909H13.3025V19.6909H13.2914V20.8909ZM13.2804 20.8909H13.2914V19.6909H13.2804V20.8909ZM13.2694 20.8909H13.2804V19.6909H13.2694V20.8909ZM13.2585 20.8909H13.2694V19.6909H13.2585V20.8909ZM13.2475 20.8909H13.2585V19.6909H13.2475V20.8909ZM13.2365 20.8909H13.2475V19.6909H13.2365V20.8909ZM13.2256 20.8909H13.2365V19.6909H13.2256V20.8909ZM13.2147 20.8909H13.2256V19.6909H13.2147V20.8909ZM13.2038 20.8909H13.2147V19.6909H13.2038V20.8909ZM13.1929 20.8909H13.2038V19.6909H13.1929V20.8909ZM13.182 20.8909H13.1929V19.6909H13.182V20.8909ZM13.1712 20.8909H13.182V19.6909H13.1712V20.8909ZM13.1604 20.8909H13.1712V19.6909H13.1604V20.8909ZM13.1495 20.8909H13.1604V19.6909H13.1495V20.8909ZM13.1387 20.8909H13.1495V19.6909H13.1387V20.8909ZM13.1279 20.8909H13.1387V19.6909H13.1279V20.8909ZM13.1172 20.8909H13.1279V19.6909H13.1172V20.8909ZM13.1064 20.8909H13.1172V19.6909H13.1064V20.8909ZM13.0957 20.8909H13.1064V19.6909H13.0957V20.8909ZM13.0849 20.8909H13.0957V19.6909H13.0849V20.8909ZM13.0742 20.8909H13.0849V19.6909H13.0742V20.8909ZM13.0635 20.8909H13.0742V19.6909H13.0635V20.8909ZM13.0529 20.8909H13.0635V19.6909H13.0529V20.8909ZM13.0422 20.8909H13.0529V19.6909H13.0422V20.8909ZM13.0316 20.8909H13.0422V19.6909H13.0316V20.8909ZM13.0209 20.8909H13.0316V19.6909H13.0209V20.8909ZM13.0103 20.8909H13.0209V19.6909H13.0103V20.8909ZM12.9997 20.8909H13.0103V19.6909H12.9997V20.8909ZM12.9891 20.8909H12.9997V19.6909H12.9891V20.8909ZM12.9785 20.8909H12.9891V19.6909H12.9785V20.8909ZM12.968 20.8909H12.9785V19.6909H12.968V20.8909ZM12.9575 20.8909H12.968V19.6909H12.9575V20.8909ZM12.9469 20.8909H12.9575V19.6909H12.9469V20.8909ZM12.9364 20.8909H12.9469V19.6909H12.9364V20.8909ZM12.9259 20.8909H12.9364V19.6909H12.9259V20.8909ZM12.9155 20.8909H12.9259V19.6909H12.9155V20.8909ZM12.905 20.8909H12.9155V19.6909H12.905V20.8909ZM12.8946 20.8909H12.905V19.6909H12.8946V20.8909ZM12.8841 20.8909H12.8946V19.6909H12.8841V20.8909ZM12.8737 20.8909H12.8841V19.6909H12.8737V20.8909ZM12.8633 20.8909H12.8737V19.6909H12.8633V20.8909ZM12.853 20.8909H12.8633V19.6909H12.853V20.8909ZM12.8426 20.8909H12.853V19.6909H12.8426V20.8909ZM12.8322 20.8909H12.8426V19.6909H12.8322V20.8909ZM12.8219 20.8909H12.8322V19.6909H12.8219V20.8909ZM12.8116 20.8909H12.8219V19.6909H12.8116V20.8909ZM12.8013 20.8909H12.8116V19.6909H12.8013V20.8909ZM12.791 20.8909H12.8013V19.6909H12.791V20.8909ZM12.7807 20.8909H12.791V19.6909H12.7807V20.8909ZM12.7705 20.8909H12.7807V19.6909H12.7705V20.8909ZM12.7602 20.8909H12.7705V19.6909H12.7602V20.8909ZM12.75 20.8909H12.7602V19.6909H12.75V20.8909ZM12.7398 20.8909H12.75V19.6909H12.7398V20.8909ZM12.7296 20.8909H12.7398V19.6909H12.7296V20.8909ZM12.7195 20.8909H12.7296V19.6909H12.7195V20.8909ZM12.7093 20.8909H12.7195V19.6909H12.7093V20.8909ZM12.6992 20.8909H12.7093V19.6909H12.6992V20.8909ZM12.689 20.8909H12.6992V19.6909H12.689V20.8909ZM12.6789 20.8909H12.689V19.6909H12.6789V20.8909ZM12.6688 20.8909H12.6789V19.6909H12.6688V20.8909ZM12.6587 20.8909H12.6688V19.6909H12.6587V20.8909ZM12.6487 20.8909H12.6587V19.6909H12.6487V20.8909ZM12.6386 20.8909H12.6487V19.6909H12.6386V20.8909ZM12.6286 20.8909H12.6386V19.6909H12.6286V20.8909ZM12.6186 20.8909H12.6286V19.6909H12.6186V20.8909ZM12.6086 20.8909H12.6186V19.6909H12.6086V20.8909ZM12.5986 20.8909H12.6086V19.6909H12.5986V20.8909ZM12.5886 20.8909H12.5986V19.6909H12.5886V20.8909ZM12.5787 20.8909H12.5886V19.6909H12.5787V20.8909ZM12.5687 20.8909H12.5787V19.6909H12.5687V20.8909ZM12.5588 20.8909H12.5687V19.6909H12.5588V20.8909ZM12.5489 20.8909H12.5588V19.6909H12.5489V20.8909ZM12.539 20.8909H12.5489V19.6909H12.539V20.8909ZM12.5291 20.8909H12.539V19.6909H12.5291V20.8909ZM12.5193 20.8909H12.5291V19.6909H12.5193V20.8909ZM12.5094 20.8909H12.5193V19.6909H12.5094V20.8909ZM12.4996 20.8909H12.5094V19.6909H12.4996V20.8909ZM12.4898 20.8909H12.4996V19.6909H12.4898V20.8909ZM12.48 20.8909H12.4898V19.6909H12.48V20.8909ZM12.4702 20.8909H12.48V19.6909H12.4702V20.8909ZM12.4604 20.8909H12.4702V19.6909H12.4604V20.8909ZM12.4507 20.8909H12.4604V19.6909H12.4507V20.8909ZM12.441 20.8909H12.4507V19.6909H12.441V20.8909ZM12.4312 20.8909H12.441V19.6909H12.4312V20.8909ZM12.4215 20.8909H12.4312V19.6909H12.4215V20.8909ZM12.4119 20.8909H12.4215V19.6909H12.4119V20.8909ZM12.4022 20.8909H12.4119V19.6909H12.4022V20.8909ZM12.3925 20.8909H12.4022V19.6909H12.3925V20.8909ZM12.3829 20.8909H12.3925V19.6909H12.3829V20.8909ZM12.3733 20.8909H12.3829V19.6909H12.3733V20.8909ZM12.3637 20.8909H12.3733V19.6909H12.3637V20.8909ZM12.3541 20.8909H12.3637V19.6909H12.3541V20.8909ZM12.3445 20.8909H12.3541V19.6909H12.3445V20.8909ZM12.3349 20.8909H12.3445V19.6909H12.3349V20.8909ZM12.3254 20.8909H12.3349V19.6909H12.3254V20.8909ZM12.3159 20.8909H12.3254V19.6909H12.3159V20.8909ZM12.3064 20.8909H12.3159V19.6909H12.3064V20.8909ZM12.2969 20.8909H12.3064V19.6909H12.2969V20.8909ZM12.2874 20.8909H12.2969V19.6909H12.2874V20.8909ZM12.2779 20.8909H12.2874V19.6909H12.2779V20.8909ZM12.2685 20.8909H12.2779V19.6909H12.2685V20.8909ZM12.259 20.8909H12.2685V19.6909H12.259V20.8909ZM12.2496 20.8909H12.259V19.6909H12.2496V20.8909ZM12.2402 20.8909H12.2496V19.6909H12.2402V20.8909ZM12.2308 20.8909H12.2402V19.6909H12.2308V20.8909ZM12.2215 20.8909H12.2308V19.6909H12.2215V20.8909ZM12.2121 20.8909H12.2215V19.6909H12.2121V20.8909ZM12.2028 20.8909H12.2121V19.6909H12.2028V20.8909ZM12.1934 20.8909H12.2028V19.6909H12.1934V20.8909ZM12.1841 20.8909H12.1934V19.6909H12.1841V20.8909ZM12.1748 20.8909H12.1841V19.6909H12.1748V20.8909ZM12.1656 20.8909H12.1748V19.6909H12.1656V20.8909ZM12.1563 20.8909H12.1656V19.6909H12.1563V20.8909ZM12.1471 20.8909H12.1563V19.6909H12.1471V20.8909ZM12.1378 20.8909H12.1471V19.6909H12.1378V20.8909ZM12.1286 20.8909H12.1378V19.6909H12.1286V20.8909ZM12.1194 20.8909H12.1286V19.6909H12.1194V20.8909ZM12.1102 20.8909H12.1194V19.6909H12.1102V20.8909ZM12.1011 20.8909H12.1102V19.6909H12.1011V20.8909ZM12.0919 20.8909H12.1011V19.6909H12.0919V20.8909ZM12.0828 20.8909H12.0919V19.6909H12.0828V20.8909ZM12.0737 20.8909H12.0828V19.6909H12.0737V20.8909ZM12.0646 20.8909H12.0737V19.6909H12.0646V20.8909ZM12.0555 20.8909H12.0646V19.6909H12.0555V20.8909ZM12.0464 20.8909H12.0555V19.6909H12.0464V20.8909ZM12.0373 20.8909H12.0464V19.6909H12.0373V20.8909ZM12.0283 20.8909H12.0373V19.6909H12.0283V20.8909ZM12.0193 20.8909H12.0283V19.6909H12.0193V20.8909ZM12.0103 20.8909H12.0193V19.6909H12.0103V20.8909ZM12.0013 20.8909H12.0103V19.6909H12.0013V20.8909ZM11.9923 20.8909H12.0013V19.6909H11.9923V20.8909ZM11.9833 20.8909H11.9923V19.6909H11.9833V20.8909ZM11.9744 20.8909H11.9833V19.6909H11.9744V20.8909ZM11.9655 20.8909H11.9744V19.6909H11.9655V20.8909ZM11.9566 20.8909H11.9655V19.6909H11.9566V20.8909ZM11.9477 20.8909H11.9566V19.6909H11.9477V20.8909ZM11.9388 20.8909H11.9477V19.6909H11.9388V20.8909ZM11.9299 20.8909H11.9388V19.6909H11.9299V20.8909ZM11.9211 20.8909H11.9299V19.6909H11.9211V20.8909ZM11.9122 20.8909H11.9211V19.6909H11.9122V20.8909ZM11.9034 20.8909H11.9122V19.6909H11.9034V20.8909ZM11.8946 20.8909H11.9034V19.6909H11.8946V20.8909ZM11.8858 20.8909H11.8946V19.6909H11.8858V20.8909ZM11.877 20.8909H11.8858V19.6909H11.877V20.8909ZM11.8683 20.8909H11.877V19.6909H11.8683V20.8909ZM11.8595 20.8909H11.8683V19.6909H11.8595V20.8909ZM11.8508 20.8909H11.8595V19.6909H11.8508V20.8909ZM11.8421 20.8909H11.8508V19.6909H11.8421V20.8909ZM11.8334 20.8909H11.8421V19.6909H11.8334V20.8909ZM11.8247 20.8909H11.8334V19.6909H11.8247V20.8909ZM11.8161 20.8909H11.8247V19.6909H11.8161V20.8909ZM11.8074 20.8909H11.8161V19.6909H11.8074V20.8909ZM11.7988 20.8909H11.8074V19.6909H11.7988V20.8909ZM11.7902 20.8909H11.7988V19.6909H11.7902V20.8909ZM11.7816 20.8909H11.7902V19.6909H11.7816V20.8909ZM11.773 20.8909H11.7816V19.6909H11.773V20.8909ZM11.7644 20.8909H11.773V19.6909H11.7644V20.8909ZM11.7559 20.8909H11.7644V19.6909H11.7559V20.8909ZM11.7474 20.8909H11.7559V19.6909H11.7474V20.8909ZM11.7388 20.8909H11.7474V19.6909H11.7388V20.8909ZM11.7303 20.8909H11.7388V19.6909H11.7303V20.8909ZM11.7218 20.8909H11.7303V19.6909H11.7218V20.8909ZM11.7134 20.8909H11.7218V19.6909H11.7134V20.8909ZM11.7049 20.8909H11.7134V19.6909H11.7049V20.8909ZM11.6965 20.8909H11.7049V19.6909H11.6965V20.8909ZM11.6881 20.8909H11.6965V19.6909H11.6881V20.8909ZM11.6796 20.8909H11.6881V19.6909H11.6796V20.8909ZM11.6712 20.8909H11.6796V19.6909H11.6712V20.8909ZM11.6629 20.8909H11.6712V19.6909H11.6629V20.8909ZM11.6545 20.8909H11.6629V19.6909H11.6545V20.8909ZM11.6462 20.8909H11.6545V19.6909H11.6462V20.8909ZM11.6378 20.8909H11.6462V19.6909H11.6378V20.8909ZM11.6295 20.8909H11.6378V19.6909H11.6295V20.8909ZM11.6212 20.8909H11.6295V19.6909H11.6212V20.8909ZM11.6129 20.8909H11.6212V19.6909H11.6129V20.8909ZM11.6047 20.8909H11.6129V19.6909H11.6047V20.8909ZM11.5964 20.8909H11.6047V19.6909H11.5964V20.8909ZM11.5882 20.8909H11.5964V19.6909H11.5882V20.8909ZM11.58 20.8909H11.5882V19.6909H11.58V20.8909ZM11.5718 20.8909H11.58V19.6909H11.5718V20.8909ZM11.5636 20.8909H11.5718V19.6909H11.5636V20.8909ZM11.5554 20.8909H11.5636V19.6909H11.5554V20.8909ZM11.5472 20.8909H11.5554V19.6909H11.5472V20.8909ZM11.5391 20.8909H11.5472V19.6909H11.5391V20.8909ZM11.531 20.8909H11.5391V19.6909H11.531V20.8909ZM11.5229 20.8909H11.531V19.6909H11.5229V20.8909ZM11.5148 20.8909H11.5229V19.6909H11.5148V20.8909ZM11.5067 20.8909H11.5148V19.6909H11.5067V20.8909ZM10.9067 20.1909V20.2909H12.1067V20.1909H10.9067ZM11.5148 19.5909H11.5067V20.7909H11.5148V19.5909ZM11.5229 19.5909H11.5148V20.7909H11.5229V19.5909ZM11.531 19.5909H11.5229V20.7909H11.531V19.5909ZM11.5391 19.5909H11.531V20.7909H11.5391V19.5909ZM11.5472 19.5909H11.5391V20.7909H11.5472V19.5909ZM11.5554 19.5909H11.5472V20.7909H11.5554V19.5909ZM11.5636 19.5909H11.5554V20.7909H11.5636V19.5909ZM11.5718 19.5909H11.5636V20.7909H11.5718V19.5909ZM11.58 19.5909H11.5718V20.7909H11.58V19.5909ZM11.5882 19.5909H11.58V20.7909H11.5882V19.5909ZM11.5964 19.5909H11.5882V20.7909H11.5964V19.5909ZM11.6047 19.5909H11.5964V20.7909H11.6047V19.5909ZM11.6129 19.5909H11.6047V20.7909H11.6129V19.5909ZM11.6212 19.5909H11.6129V20.7909H11.6212V19.5909ZM11.6295 19.5909H11.6212V20.7909H11.6295V19.5909ZM11.6378 19.5909H11.6295V20.7909H11.6378V19.5909ZM11.6462 19.5909H11.6378V20.7909H11.6462V19.5909ZM11.6545 19.5909H11.6462V20.7909H11.6545V19.5909ZM11.6629 19.5909H11.6545V20.7909H11.6629V19.5909ZM11.6712 19.5909H11.6629V20.7909H11.6712V19.5909ZM11.6796 19.5909H11.6712V20.7909H11.6796V19.5909ZM11.6881 19.5909H11.6796V20.7909H11.6881V19.5909ZM11.6965 19.5909H11.6881V20.7909H11.6965V19.5909ZM11.7049 19.5909H11.6965V20.7909H11.7049V19.5909ZM11.7134 19.5909H11.7049V20.7909H11.7134V19.5909ZM11.7218 19.5909H11.7134V20.7909H11.7218V19.5909ZM11.7303 19.5909H11.7218V20.7909H11.7303V19.5909ZM11.7388 19.5909H11.7303V20.7909H11.7388V19.5909ZM11.7474 19.5909H11.7388V20.7909H11.7474V19.5909ZM11.7559 19.5909H11.7474V20.7909H11.7559V19.5909ZM11.7644 19.5909H11.7559V20.7909H11.7644V19.5909ZM11.773 19.5909H11.7644V20.7909H11.773V19.5909ZM11.7816 19.5909H11.773V20.7909H11.7816V19.5909ZM11.7902 19.5909H11.7816V20.7909H11.7902V19.5909ZM11.7988 19.5909H11.7902V20.7909H11.7988V19.5909ZM11.8074 19.5909H11.7988V20.7909H11.8074V19.5909ZM11.8161 19.5909H11.8074V20.7909H11.8161V19.5909ZM11.8247 19.5909H11.8161V20.7909H11.8247V19.5909ZM11.8334 19.5909H11.8247V20.7909H11.8334V19.5909ZM11.8421 19.5909H11.8334V20.7909H11.8421V19.5909ZM11.8508 19.5909H11.8421V20.7909H11.8508V19.5909ZM11.8595 19.5909H11.8508V20.7909H11.8595V19.5909ZM11.8683 19.5909H11.8595V20.7909H11.8683V19.5909ZM11.877 19.5909H11.8683V20.7909H11.877V19.5909ZM11.8858 19.5909H11.877V20.7909H11.8858V19.5909ZM11.8946 19.5909H11.8858V20.7909H11.8946V19.5909ZM11.9034 19.5909H11.8946V20.7909H11.9034V19.5909ZM11.9122 19.5909H11.9034V20.7909H11.9122V19.5909ZM11.9211 19.5909H11.9122V20.7909H11.9211V19.5909ZM11.9299 19.5909H11.9211V20.7909H11.9299V19.5909ZM11.9388 19.5909H11.9299V20.7909H11.9388V19.5909ZM11.9477 19.5909H11.9388V20.7909H11.9477V19.5909ZM11.9566 19.5909H11.9477V20.7909H11.9566V19.5909ZM11.9655 19.5909H11.9566V20.7909H11.9655V19.5909ZM11.9744 19.5909H11.9655V20.7909H11.9744V19.5909ZM11.9833 19.5909H11.9744V20.7909H11.9833V19.5909ZM11.9923 19.5909H11.9833V20.7909H11.9923V19.5909ZM12.0013 19.5909H11.9923V20.7909H12.0013V19.5909ZM12.0103 19.5909H12.0013V20.7909H12.0103V19.5909ZM12.0193 19.5909H12.0103V20.7909H12.0193V19.5909ZM12.0283 19.5909H12.0193V20.7909H12.0283V19.5909ZM12.0373 19.5909H12.0283V20.7909H12.0373V19.5909ZM12.0464 19.5909H12.0373V20.7909H12.0464V19.5909ZM12.0555 19.5909H12.0464V20.7909H12.0555V19.5909ZM12.0646 19.5909H12.0555V20.7909H12.0646V19.5909ZM12.0737 19.5909H12.0646V20.7909H12.0737V19.5909ZM12.0828 19.5909H12.0737V20.7909H12.0828V19.5909ZM12.0919 19.5909H12.0828V20.7909H12.0919V19.5909ZM12.1011 19.5909H12.0919V20.7909H12.1011V19.5909ZM12.1102 19.5909H12.1011V20.7909H12.1102V19.5909ZM12.1194 19.5909H12.1102V20.7909H12.1194V19.5909ZM12.1286 19.5909H12.1194V20.7909H12.1286V19.5909ZM12.1378 19.5909H12.1286V20.7909H12.1378V19.5909ZM12.1471 19.5909H12.1378V20.7909H12.1471V19.5909ZM12.1563 19.5909H12.1471V20.7909H12.1563V19.5909ZM12.1656 19.5909H12.1563V20.7909H12.1656V19.5909ZM12.1748 19.5909H12.1656V20.7909H12.1748V19.5909ZM12.1841 19.5909H12.1748V20.7909H12.1841V19.5909ZM12.1934 19.5909H12.1841V20.7909H12.1934V19.5909ZM12.2028 19.5909H12.1934V20.7909H12.2028V19.5909ZM12.2121 19.5909H12.2028V20.7909H12.2121V19.5909ZM12.2215 19.5909H12.2121V20.7909H12.2215V19.5909ZM12.2308 19.5909H12.2215V20.7909H12.2308V19.5909ZM12.2402 19.5909H12.2308V20.7909H12.2402V19.5909ZM12.2496 19.5909H12.2402V20.7909H12.2496V19.5909ZM12.259 19.5909H12.2496V20.7909H12.259V19.5909ZM12.2685 19.5909H12.259V20.7909H12.2685V19.5909ZM12.2779 19.5909H12.2685V20.7909H12.2779V19.5909ZM12.2874 19.5909H12.2779V20.7909H12.2874V19.5909ZM12.2969 19.5909H12.2874V20.7909H12.2969V19.5909ZM12.3064 19.5909H12.2969V20.7909H12.3064V19.5909ZM12.3159 19.5909H12.3064V20.7909H12.3159V19.5909ZM12.3254 19.5909H12.3159V20.7909H12.3254V19.5909ZM12.3349 19.5909H12.3254V20.7909H12.3349V19.5909ZM12.3445 19.5909H12.3349V20.7909H12.3445V19.5909ZM12.3541 19.5909H12.3445V20.7909H12.3541V19.5909ZM12.3637 19.5909H12.3541V20.7909H12.3637V19.5909ZM12.3733 19.5909H12.3637V20.7909H12.3733V19.5909ZM12.3829 19.5909H12.3733V20.7909H12.3829V19.5909ZM12.3925 19.5909H12.3829V20.7909H12.3925V19.5909ZM12.4022 19.5909H12.3925V20.7909H12.4022V19.5909ZM12.4119 19.5909H12.4022V20.7909H12.4119V19.5909ZM12.4215 19.5909H12.4119V20.7909H12.4215V19.5909ZM12.4312 19.5909H12.4215V20.7909H12.4312V19.5909ZM12.441 19.5909H12.4312V20.7909H12.441V19.5909ZM12.4507 19.5909H12.441V20.7909H12.4507V19.5909ZM12.4604 19.5909H12.4507V20.7909H12.4604V19.5909ZM12.4702 19.5909H12.4604V20.7909H12.4702V19.5909ZM12.48 19.5909H12.4702V20.7909H12.48V19.5909ZM12.4898 19.5909H12.48V20.7909H12.4898V19.5909ZM12.4996 19.5909H12.4898V20.7909H12.4996V19.5909ZM12.5094 19.5909H12.4996V20.7909H12.5094V19.5909ZM12.5193 19.5909H12.5094V20.7909H12.5193V19.5909ZM12.5291 19.5909H12.5193V20.7909H12.5291V19.5909ZM12.539 19.5909H12.5291V20.7909H12.539V19.5909ZM12.5489 19.5909H12.539V20.7909H12.5489V19.5909ZM12.5588 19.5909H12.5489V20.7909H12.5588V19.5909ZM12.5687 19.5909H12.5588V20.7909H12.5687V19.5909ZM12.5787 19.5909H12.5687V20.7909H12.5787V19.5909ZM12.5886 19.5909H12.5787V20.7909H12.5886V19.5909ZM12.5986 19.5909H12.5886V20.7909H12.5986V19.5909ZM12.6086 19.5909H12.5986V20.7909H12.6086V19.5909ZM12.6186 19.5909H12.6086V20.7909H12.6186V19.5909ZM12.6286 19.5909H12.6186V20.7909H12.6286V19.5909ZM12.6386 19.5909H12.6286V20.7909H12.6386V19.5909ZM12.6487 19.5909H12.6386V20.7909H12.6487V19.5909ZM12.6587 19.5909H12.6487V20.7909H12.6587V19.5909ZM12.6688 19.5909H12.6587V20.7909H12.6688V19.5909ZM12.6789 19.5909H12.6688V20.7909H12.6789V19.5909ZM12.689 19.5909H12.6789V20.7909H12.689V19.5909ZM12.6992 19.5909H12.689V20.7909H12.6992V19.5909ZM12.7093 19.5909H12.6992V20.7909H12.7093V19.5909ZM12.7195 19.5909H12.7093V20.7909H12.7195V19.5909ZM12.7296 19.5909H12.7195V20.7909H12.7296V19.5909ZM12.7398 19.5909H12.7296V20.7909H12.7398V19.5909ZM12.75 19.5909H12.7398V20.7909H12.75V19.5909ZM12.7602 19.5909H12.75V20.7909H12.7602V19.5909ZM12.7705 19.5909H12.7602V20.7909H12.7705V19.5909ZM12.7807 19.5909H12.7705V20.7909H12.7807V19.5909ZM12.791 19.5909H12.7807V20.7909H12.791V19.5909ZM12.8013 19.5909H12.791V20.7909H12.8013V19.5909ZM12.8116 19.5909H12.8013V20.7909H12.8116V19.5909ZM12.8219 19.5909H12.8116V20.7909H12.8219V19.5909ZM12.8322 19.5909H12.8219V20.7909H12.8322V19.5909ZM12.8426 19.5909H12.8322V20.7909H12.8426V19.5909ZM12.853 19.5909H12.8426V20.7909H12.853V19.5909ZM12.8633 19.5909H12.853V20.7909H12.8633V19.5909ZM12.8737 19.5909H12.8633V20.7909H12.8737V19.5909ZM12.8841 19.5909H12.8737V20.7909H12.8841V19.5909ZM12.8946 19.5909H12.8841V20.7909H12.8946V19.5909ZM12.905 19.5909H12.8946V20.7909H12.905V19.5909ZM12.9155 19.5909H12.905V20.7909H12.9155V19.5909ZM12.9259 19.5909H12.9155V20.7909H12.9259V19.5909ZM12.9364 19.5909H12.9259V20.7909H12.9364V19.5909ZM12.9469 19.5909H12.9364V20.7909H12.9469V19.5909ZM12.9575 19.5909H12.9469V20.7909H12.9575V19.5909ZM12.968 19.5909H12.9575V20.7909H12.968V19.5909ZM12.9785 19.5909H12.968V20.7909H12.9785V19.5909ZM12.9891 19.5909H12.9785V20.7909H12.9891V19.5909ZM12.9997 19.5909H12.9891V20.7909H12.9997V19.5909ZM13.0103 19.5909H12.9997V20.7909H13.0103V19.5909ZM13.0209 19.5909H13.0103V20.7909H13.0209V19.5909ZM13.0316 19.5909H13.0209V20.7909H13.0316V19.5909ZM13.0422 19.5909H13.0316V20.7909H13.0422V19.5909ZM13.0529 19.5909H13.0422V20.7909H13.0529V19.5909ZM13.0635 19.5909H13.0529V20.7909H13.0635V19.5909ZM13.0742 19.5909H13.0635V20.7909H13.0742V19.5909ZM13.0849 19.5909H13.0742V20.7909H13.0849V19.5909ZM13.0957 19.5909H13.0849V20.7909H13.0957V19.5909ZM13.1064 19.5909H13.0957V20.7909H13.1064V19.5909ZM13.1172 19.5909H13.1064V20.7909H13.1172V19.5909ZM13.1279 19.5909H13.1172V20.7909H13.1279V19.5909ZM13.1387 19.5909H13.1279V20.7909H13.1387V19.5909ZM13.1495 19.5909H13.1387V20.7909H13.1495V19.5909ZM13.1604 19.5909H13.1495V20.7909H13.1604V19.5909ZM13.1712 19.5909H13.1604V20.7909H13.1712V19.5909ZM13.182 19.5909H13.1712V20.7909H13.182V19.5909ZM13.1929 19.5909H13.182V20.7909H13.1929V19.5909ZM13.2038 19.5909H13.1929V20.7909H13.2038V19.5909ZM13.2147 19.5909H13.2038V20.7909H13.2147V19.5909ZM13.2256 19.5909H13.2147V20.7909H13.2256V19.5909ZM13.2365 19.5909H13.2256V20.7909H13.2365V19.5909ZM13.2475 19.5909H13.2365V20.7909H13.2475V19.5909ZM13.2585 19.5909H13.2475V20.7909H13.2585V19.5909ZM13.2694 19.5909H13.2585V20.7909H13.2694V19.5909ZM13.2804 19.5909H13.2694V20.7909H13.2804V19.5909ZM13.2914 19.5909H13.2804V20.7909H13.2914V19.5909ZM13.3025 19.5909H13.2914V20.7909H13.3025V19.5909ZM13.3135 19.5909H13.3025V20.7909H13.3135V19.5909ZM13.3246 19.5909H13.3135V20.7909H13.3246V19.5909ZM13.3356 19.5909H13.3246V20.7909H13.3356V19.5909ZM13.3467 19.5909H13.3356V20.7909H13.3467V19.5909ZM13.3578 19.5909H13.3467V20.7909H13.3578V19.5909ZM13.369 19.5909H13.3578V20.7909H13.369V19.5909ZM13.3801 19.5909H13.369V20.7909H13.3801V19.5909ZM13.3912 19.5909H13.3801V20.7909H13.3912V19.5909ZM13.4024 19.5909H13.3912V20.7909H13.4024V19.5909ZM13.4136 19.5909H13.4024V20.7909H13.4136V19.5909ZM13.4248 19.5909H13.4136V20.7909H13.4248V19.5909ZM13.436 19.5909H13.4248V20.7909H13.436V19.5909ZM13.4472 19.5909H13.436V20.7909H13.4472V19.5909ZM13.4585 19.5909H13.4472V20.7909H13.4585V19.5909ZM13.4697 19.5909H13.4585V20.7909H13.4697V19.5909ZM13.481 19.5909H13.4697V20.7909H13.481V19.5909ZM13.4923 19.5909H13.481V20.7909H13.4923V19.5909ZM13.5036 19.5909H13.4923V20.7909H13.5036V19.5909ZM13.515 19.5909H13.5036V20.7909H13.515V19.5909ZM13.5263 19.5909H13.515V20.7909H13.5263V19.5909ZM13.5376 19.5909H13.5263V20.7909H13.5376V19.5909ZM13.549 19.5909H13.5376V20.7909H13.549V19.5909ZM13.5604 19.5909H13.549V20.7909H13.5604V19.5909ZM13.5718 19.5909H13.5604V20.7909H13.5718V19.5909ZM13.5832 19.5909H13.5718V20.7909H13.5832V19.5909ZM13.5947 19.5909H13.5832V20.7909H13.5947V19.5909ZM13.6061 19.5909H13.5947V20.7909H13.6061V19.5909ZM13.6176 19.5909H13.6061V20.7909H13.6176V19.5909ZM13.6291 19.5909H13.6176V20.7909H13.6291V19.5909ZM13.6406 19.5909H13.6291V20.7909H13.6406V19.5909ZM13.6521 19.5909H13.6406V20.7909H13.6521V19.5909ZM13.6636 19.5909H13.6521V20.7909H13.6636V19.5909ZM13.6752 19.5909H13.6636V20.7909H13.6752V19.5909ZM13.6867 19.5909H13.6752V20.7909H13.6867V19.5909ZM13.6983 19.5909H13.6867V20.7909H13.6983V19.5909ZM13.7099 19.5909H13.6983V20.7909H13.7099V19.5909ZM13.7215 19.5909H13.7099V20.7909H13.7215V19.5909ZM13.7331 19.5909H13.7215V20.7909H13.7331V19.5909ZM13.7448 19.5909H13.7331V20.7909H13.7448V19.5909ZM13.7564 19.5909H13.7448V20.7909H13.7564V19.5909ZM13.7681 19.5909H13.7564V20.7909H13.7681V19.5909ZM13.7798 19.5909H13.7681V20.7909H13.7798V19.5909ZM13.7915 19.5909H13.7798V20.7909H13.7915V19.5909ZM13.8032 19.5909H13.7915V20.7909H13.8032V19.5909ZM13.8149 19.5909H13.8032V20.7909H13.8149V19.5909ZM13.8267 19.5909H13.8149V20.7909H13.8267V19.5909ZM13.8385 19.5909H13.8267V20.7909H13.8385V19.5909ZM13.8502 19.5909H13.8385V20.7909H13.8502V19.5909ZM13.862 19.5909H13.8502V20.7909H13.862V19.5909ZM13.8739 19.5909H13.862V20.7909H13.8739V19.5909ZM13.8857 19.5909H13.8739V20.7909H13.8857V19.5909ZM13.8975 19.5909H13.8857V20.7909H13.8975V19.5909ZM13.9094 19.5909H13.8975V20.7909H13.9094V19.5909ZM13.9213 19.5909H13.9094V20.7909H13.9213V19.5909ZM13.9332 19.5909H13.9213V20.7909H13.9332V19.5909ZM13.9451 19.5909H13.9332V20.7909H13.9451V19.5909ZM13.957 19.5909H13.9451V20.7909H13.957V19.5909ZM13.9689 19.5909H13.957V20.7909H13.9689V19.5909ZM13.9809 19.5909H13.9689V20.7909H13.9809V19.5909ZM13.9929 19.5909H13.9809V20.7909H13.9929V19.5909ZM14.0048 19.5909H13.9929V20.7909H14.0048V19.5909ZM14.0168 19.5909H14.0048V20.7909H14.0168V19.5909ZM14.0289 19.5909H14.0168V20.7909H14.0289V19.5909ZM14.0409 19.5909H14.0289V20.7909H14.0409V19.5909ZM14.053 19.5909H14.0409V20.7909H14.053V19.5909ZM14.065 19.5909H14.053V20.7909H14.065V19.5909ZM14.0771 19.5909H14.065V20.7909H14.0771V19.5909ZM14.0892 19.5909H14.0771V20.7909H14.0892V19.5909ZM14.1013 19.5909H14.0892V20.7909H14.1013V19.5909ZM14.1134 19.5909H14.1013V20.7909H14.1134V19.5909ZM14.1256 19.5909H14.1134V20.7909H14.1256V19.5909ZM14.1377 19.5909H14.1256V20.7909H14.1377V19.5909ZM14.1499 19.5909H14.1377V20.7909H14.1499V19.5909ZM14.1621 19.5909H14.1499V20.7909H14.1621V19.5909ZM14.1743 19.5909H14.1621V20.7909H14.1743V19.5909ZM14.1865 19.5909H14.1743V20.7909H14.1865V19.5909ZM14.1988 19.5909H14.1865V20.7909H14.1988V19.5909ZM14.211 19.5909H14.1988V20.7909H14.211V19.5909ZM14.2233 19.5909H14.211V20.7909H14.2233V19.5909ZM14.2356 19.5909H14.2233V20.7909H14.2356V19.5909ZM14.2479 19.5909H14.2356V20.7909H14.2479V19.5909ZM14.2602 19.5909H14.2479V20.7909H14.2602V19.5909ZM14.2726 19.5909H14.2602V20.7909H14.2726V19.5909ZM14.2849 19.5909H14.2726V20.7909H14.2849V19.5909ZM14.2973 19.5909H14.2849V20.7909H14.2973V19.5909ZM14.3097 19.5909H14.2973V20.7909H14.3097V19.5909ZM14.322 19.5909H14.3097V20.7909H14.322V19.5909ZM14.3345 19.5909H14.322V20.7909H14.3345V19.5909ZM14.3469 19.5909H14.3345V20.7909H14.3469V19.5909ZM14.3593 19.5909H14.3469V20.7909H14.3593V19.5909ZM14.3718 19.5909H14.3593V20.7909H14.3718V19.5909ZM14.3843 19.5909H14.3718V20.7909H14.3843V19.5909ZM14.3968 19.5909H14.3843V20.7909H14.3968V19.5909ZM14.4093 19.5909H14.3968V20.7909H14.4093V19.5909ZM14.4218 19.5909H14.4093V20.7909H14.4218V19.5909ZM14.4343 19.5909H14.4218V20.7909H14.4343V19.5909ZM14.4469 19.5909H14.4343V20.7909H14.4469V19.5909ZM14.4595 19.5909H14.4469V20.7909H14.4595V19.5909ZM14.472 19.5909H14.4595V20.7909H14.472V19.5909ZM14.4846 19.5909H14.472V20.7909H14.4846V19.5909ZM14.4973 19.5909H14.4846V20.7909H14.4973V19.5909ZM14.5099 19.5909H14.4973V20.7909H14.5099V19.5909ZM14.5225 19.5909H14.5099V20.7909H14.5225V19.5909ZM14.5352 19.5909H14.5225V20.7909H14.5352V19.5909ZM14.5479 19.5909H14.5352V20.7909H14.5479V19.5909ZM14.5606 19.5909H14.5479V20.7909H14.5606V19.5909ZM14.5733 19.5909H14.5606V20.7909H14.5733V19.5909ZM14.586 19.5909H14.5733V20.7909H14.586V19.5909ZM14.5988 19.5909H14.586V20.7909H14.5988V19.5909ZM14.6115 19.5909H14.5988V20.7909H14.6115V19.5909ZM14.6243 19.5909H14.6115V20.7909H14.6243V19.5909ZM14.6371 19.5909H14.6243V20.7909H14.6371V19.5909ZM14.6499 19.5909H14.6371V20.7909H14.6499V19.5909ZM14.6627 19.5909H14.6499V20.7909H14.6627V19.5909ZM14.6756 19.5909H14.6627V20.7909H14.6756V19.5909ZM14.6884 19.5909H14.6756V20.7909H14.6884V19.5909ZM14.7013 19.5909H14.6884V20.7909H14.7013V19.5909ZM14.7142 19.5909H14.7013V20.7909H14.7142V19.5909ZM14.7271 19.5909H14.7142V20.7909H14.7271V19.5909ZM14.74 19.5909H14.7271V20.7909H14.74V19.5909ZM14.7529 19.5909H14.74V20.7909H14.7529V19.5909ZM14.7659 19.5909H14.7529V20.7909H14.7659V19.5909ZM14.7788 19.5909H14.7659V20.7909H14.7788V19.5909ZM14.7918 19.5909H14.7788V20.7909H14.7918V19.5909ZM14.8048 19.5909H14.7918V20.7909H14.8048V19.5909ZM14.8178 19.5909H14.8048V20.7909H14.8178V19.5909ZM14.8309 19.5909H14.8178V20.7909H14.8309V19.5909ZM14.8439 19.5909H14.8309V20.7909H14.8439V19.5909ZM14.857 19.5909H14.8439V20.7909H14.857V19.5909ZM14.87 19.5909H14.857V20.7909H14.87V19.5909ZM14.8831 19.5909H14.87V20.7909H14.8831V19.5909ZM14.8962 19.5909H14.8831V20.7909H14.8962V19.5909ZM14.9094 19.5909H14.8962V20.7909H14.9094V19.5909ZM14.9225 19.5909H14.9094V20.7909H14.9225V19.5909ZM14.9356 19.5909H14.9225V20.7909H14.9356V19.5909ZM14.9488 19.5909H14.9356V20.7909H14.9488V19.5909ZM14.962 19.5909H14.9488V20.7909H14.962V19.5909ZM14.9752 19.5909H14.962V20.7909H14.9752V19.5909ZM14.9884 19.5909H14.9752V20.7909H14.9884V19.5909ZM15.0016 19.5909H14.9884V20.7909H15.0016V19.5909ZM15.0149 19.5909H15.0016V20.7909H15.0149V19.5909ZM15.0282 19.5909H15.0149V20.7909H15.0282V19.5909ZM15.0414 19.5909H15.0282V20.7909H15.0414V19.5909ZM15.0547 19.5909H15.0414V20.7909H15.0547V19.5909ZM15.068 19.5909H15.0547V20.7909H15.068V19.5909ZM15.0814 19.5909H15.068V20.7909H15.0814V19.5909ZM15.0947 19.5909H15.0814V20.7909H15.0947V19.5909ZM15.1081 19.5909H15.0947V20.7909H15.1081V19.5909ZM15.1215 19.5909H15.1081V20.7909H15.1215V19.5909ZM15.1348 19.5909H15.1215V20.7909H15.1348V19.5909ZM15.1482 19.5909H15.1348V20.7909H15.1482V19.5909ZM15.1617 19.5909H15.1482V20.7909H15.1617V19.5909ZM15.1751 19.5909H15.1617V20.7909H15.1751V19.5909ZM15.1886 19.5909H15.1751V20.7909H15.1886V19.5909ZM15.202 19.5909H15.1886V20.7909H15.202V19.5909ZM15.2155 19.5909H15.202V20.7909H15.2155V19.5909ZM15.229 19.5909H15.2155V20.7909H15.229V19.5909ZM15.2425 19.5909H15.229V20.7909H15.2425V19.5909ZM15.2561 19.5909H15.2425V20.7909H15.2561V19.5909ZM15.2696 19.5909H15.2561V20.7909H15.2696V19.5909ZM15.2832 19.5909H15.2696V20.7909H15.2832V19.5909ZM15.2968 19.5909H15.2832V20.7909H15.2968V19.5909ZM15.3103 19.5909H15.2968V20.7909H15.3103V19.5909ZM15.324 19.5909H15.3103V20.7909H15.324V19.5909ZM15.3376 19.5909H15.324V20.7909H15.3376V19.5909ZM15.3512 19.5909H15.3376V20.7909H15.3512V19.5909ZM15.3649 19.5909H15.3512V20.7909H15.3649V19.5909ZM15.3786 19.5909H15.3649V20.7909H15.3786V19.5909ZM15.3922 19.5909H15.3786V20.7909H15.3922V19.5909ZM15.406 19.5909H15.3922V20.7909H15.406V19.5909ZM15.4197 19.5909H15.406V20.7909H15.4197V19.5909ZM15.4334 19.5909H15.4197V20.7909H15.4334V19.5909ZM15.4472 19.5909H15.4334V20.7909H15.4472V19.5909ZM15.4609 19.5909H15.4472V20.7909H15.4609V19.5909ZM15.4747 19.5909H15.4609V20.7909H15.4747V19.5909ZM15.4885 19.5909H15.4747V20.7909H15.4885V19.5909ZM15.5023 19.5909H15.4885V20.7909H15.5023V19.5909ZM15.5162 19.5909H15.5023V20.7909H15.5162V19.5909ZM15.53 19.5909H15.5162V20.7909H15.53V19.5909ZM15.5439 19.5909H15.53V20.7909H15.5439V19.5909ZM15.5578 19.5909H15.5439V20.7909H15.5578V19.5909ZM15.5716 19.5909H15.5578V20.7909H15.5716V19.5909ZM15.5856 19.5909H15.5716V20.7909H15.5856V19.5909ZM15.5995 19.5909H15.5856V20.7909H15.5995V19.5909ZM15.6134 19.5909H15.5995V20.7909H15.6134V19.5909ZM15.6274 19.5909H15.6134V20.7909H15.6274V19.5909ZM15.6414 19.5909H15.6274V20.7909H15.6414V19.5909ZM15.6553 19.5909H15.6414V20.7909H15.6553V19.5909ZM15.6694 19.5909H15.6553V20.7909H15.6694V19.5909ZM15.6834 19.5909H15.6694V20.7909H15.6834V19.5909ZM15.6974 19.5909H15.6834V20.7909H15.6974V19.5909ZM15.7115 19.5909H15.6974V20.7909H15.7115V19.5909ZM15.7255 19.5909H15.7115V20.7909H15.7255V19.5909ZM15.7396 19.5909H15.7255V20.7909H15.7396V19.5909ZM15.7537 19.5909H15.7396V20.7909H15.7537V19.5909ZM15.7678 19.5909H15.7537V20.7909H15.7678V19.5909ZM15.782 19.5909H15.7678V20.7909H15.782V19.5909ZM15.7961 19.5909H15.782V20.7909H15.7961V19.5909ZM15.8103 19.5909H15.7961V20.7909H15.8103V19.5909ZM15.8244 19.5909H15.8103V20.7909H15.8244V19.5909ZM15.8386 19.5909H15.8244V20.7909H15.8386V19.5909ZM15.8528 19.5909H15.8386V20.7909H15.8528V19.5909ZM15.8671 19.5909H15.8528V20.7909H15.8671V19.5909ZM15.8813 19.5909H15.8671V20.7909H15.8813V19.5909ZM15.8956 19.5909H15.8813V20.7909H15.8956V19.5909ZM15.9098 19.5909H15.8956V20.7909H15.9098V19.5909ZM15.9241 19.5909H15.9098V20.7909H15.9241V19.5909ZM15.9384 19.5909H15.9241V20.7909H15.9384V19.5909ZM15.9528 19.5909H15.9384V20.7909H15.9528V19.5909ZM15.9671 19.5909H15.9528V20.7909H15.9671V19.5909ZM15.9814 19.5909H15.9671V20.7909H15.9814V19.5909ZM15.9958 19.5909H15.9814V20.7909H15.9958V19.5909ZM16.0102 19.5909H15.9958V20.7909H16.0102V19.5909ZM16.0246 19.5909H16.0102V20.7909H16.0246V19.5909ZM16.039 19.5909H16.0246V20.7909H16.039V19.5909ZM16.0534 19.5909H16.039V20.7909H16.0534V19.5909ZM16.0679 19.5909H16.0534V20.7909H16.0679V19.5909ZM16.0823 19.5909H16.0679V20.7909H16.0823V19.5909ZM16.0968 19.5909H16.0823V20.7909H16.0968V19.5909ZM16.1113 19.5909H16.0968V20.7909H16.1113V19.5909ZM16.1258 19.5909H16.1113V20.7909H16.1258V19.5909ZM16.1404 19.5909H16.1258V20.7909H16.1404V19.5909ZM16.1549 19.5909H16.1404V20.7909H16.1549V19.5909ZM16.1695 19.5909H16.1549V20.7909H16.1695V19.5909ZM16.184 19.5909H16.1695V20.7909H16.184V19.5909ZM16.1986 19.5909H16.184V20.7909H16.1986V19.5909ZM16.2132 19.5909H16.1986V20.7909H16.2132V19.5909ZM16.2278 19.5909H16.2132V20.7909H16.2278V19.5909ZM16.2425 19.5909H16.2278V20.7909H16.2425V19.5909ZM16.2571 19.5909H16.2425V20.7909H16.2571V19.5909ZM16.2718 19.5909H16.2571V20.7909H16.2718V19.5909ZM16.2865 19.5909H16.2718V20.7909H16.2865V19.5909ZM16.3012 19.5909H16.2865V20.7909H16.3012V19.5909ZM16.3159 19.5909H16.3012V20.7909H16.3159V19.5909ZM16.3306 19.5909H16.3159V20.7909H16.3306V19.5909ZM16.3454 19.5909H16.3306V20.7909H16.3454V19.5909ZM16.3601 19.5909H16.3454V20.7909H16.3601V19.5909ZM16.3749 19.5909H16.3601V20.7909H16.3749V19.5909ZM16.3897 19.5909H16.3749V20.7909H16.3897V19.5909ZM16.4045 19.5909H16.3897V20.7909H16.4045V19.5909ZM16.4193 19.5909H16.4045V20.7909H16.4193V19.5909ZM16.4342 19.5909H16.4193V20.7909H16.4342V19.5909ZM16.449 19.5909H16.4342V20.7909H16.449V19.5909ZM16.4639 19.5909H16.449V20.7909H16.4639V19.5909ZM16.4788 19.5909H16.4639V20.7909H16.4788V19.5909ZM16.4937 19.5909H16.4788V20.7909H16.4937V19.5909ZM16.5086 19.5909H16.4937V20.7909H16.5086V19.5909ZM16.5235 19.5909H16.5086V20.7909H16.5235V19.5909ZM16.5385 19.5909H16.5235V20.7909H16.5385V19.5909ZM16.5535 19.5909H16.5385V20.7909H16.5535V19.5909ZM16.5684 19.5909H16.5535V20.7909H16.5684V19.5909ZM16.5834 19.5909H16.5684V20.7909H16.5834V19.5909ZM16.5984 19.5909H16.5834V20.7909H16.5984V19.5909ZM16.6135 19.5909H16.5984V20.7909H16.6135V19.5909ZM16.6285 19.5909H16.6135V20.7909H16.6285V19.5909ZM16.6436 19.5909H16.6285V20.7909H16.6436V19.5909ZM16.6587 19.5909H16.6436V20.7909H16.6587V19.5909ZM16.6738 19.5909H16.6587V20.7909H16.6738V19.5909ZM16.6889 19.5909H16.6738V20.7909H16.6889V19.5909ZM16.704 19.5909H16.6889V20.7909H16.704V19.5909ZM16.7191 19.5909H16.704V20.7909H16.7191V19.5909ZM16.7343 19.5909H16.7191V20.7909H16.7343V19.5909ZM16.7495 19.5909H16.7343V20.7909H16.7495V19.5909ZM16.7646 19.5909H16.7495V20.7909H16.7646V19.5909ZM16.7798 19.5909H16.7646V20.7909H16.7798V19.5909ZM16.7951 19.5909H16.7798V20.7909H16.7951V19.5909ZM16.8103 19.5909H16.7951V20.7909H16.8103V19.5909ZM16.8255 19.5909H16.8103V20.7909H16.8255V19.5909ZM16.8408 19.5909H16.8255V20.7909H16.8408V19.5909ZM16.8561 19.5909H16.8408V20.7909H16.8561V19.5909ZM16.8714 19.5909H16.8561V20.7909H16.8714V19.5909ZM16.8867 19.5909H16.8714V20.7909H16.8867V19.5909ZM16.902 19.5909H16.8867V20.7909H16.902V19.5909ZM16.9174 19.5909H16.902V20.7909H16.9174V19.5909ZM16.9327 19.5909H16.9174V20.7909H16.9327V19.5909ZM16.9481 19.5909H16.9327V20.7909H16.9481V19.5909ZM16.9635 19.5909H16.9481V20.7909H16.9635V19.5909ZM16.9789 19.5909H16.9635V20.7909H16.9789V19.5909ZM16.9943 19.5909H16.9789V20.7909H16.9943V19.5909ZM17.0098 19.5909H16.9943V20.7909H17.0098V19.5909ZM17.0252 19.5909H17.0098V20.7909H17.0252V19.5909ZM17.0407 19.5909H17.0252V20.7909H17.0407V19.5909ZM17.0562 19.5909H17.0407V20.7909H17.0562V19.5909ZM17.0717 19.5909H17.0562V20.7909H17.0717V19.5909ZM17.0872 19.5909H17.0717V20.7909H17.0872V19.5909ZM17.1027 19.5909H17.0872V20.7909H17.1027V19.5909ZM17.1183 19.5909H17.1027V20.7909H17.1183V19.5909ZM17.1339 19.5909H17.1183V20.7909H17.1339V19.5909ZM17.1494 19.5909H17.1339V20.7909H17.1494V19.5909ZM17.165 19.5909H17.1494V20.7909H17.165V19.5909ZM17.1806 19.5909H17.165V20.7909H17.1806V19.5909ZM17.1963 19.5909H17.1806V20.7909H17.1963V19.5909ZM17.2119 19.5909H17.1963V20.7909H17.2119V19.5909ZM17.2276 19.5909H17.2119V20.7909H17.2276V19.5909ZM17.2433 19.5909H17.2276V20.7909H17.2433V19.5909ZM17.2589 19.5909H17.2433V20.7909H17.2589V19.5909ZM17.2747 19.5909H17.2589V20.7909H17.2747V19.5909ZM17.2904 19.5909H17.2747V20.7909H17.2904V19.5909ZM17.3061 19.5909H17.2904V20.7909H17.3061V19.5909ZM17.3219 19.5909H17.3061V20.7909H17.3219V19.5909ZM17.3376 19.5909H17.3219V20.7909H17.3376V19.5909ZM17.3534 19.5909H17.3376V20.7909H17.3534V19.5909ZM17.3692 19.5909H17.3534V20.7909H17.3692V19.5909ZM17.385 19.5909H17.3692V20.7909H17.385V19.5909ZM17.4009 19.5909H17.385V20.7909H17.4009V19.5909ZM17.4167 19.5909H17.4009V20.7909H17.4167V19.5909ZM17.4326 19.5909H17.4167V20.7909H17.4326V19.5909ZM17.4485 19.5909H17.4326V20.7909H17.4485V19.5909ZM17.4644 19.5909H17.4485V20.7909H17.4644V19.5909ZM17.4803 19.5909H17.4644V20.7909H17.4803V19.5909ZM17.4962 19.5909H17.4803V20.7909H17.4962V19.5909ZM17.5122 19.5909H17.4962V20.7909H17.5122V19.5909ZM17.5281 19.5909H17.5122V20.7909H17.5281V19.5909ZM17.5441 19.5909H17.5281V20.7909H17.5441V19.5909ZM17.5601 19.5909H17.5441V20.7909H17.5601V19.5909ZM17.5761 19.5909H17.5601V20.7909H17.5761V19.5909ZM17.5921 19.5909H17.5761V20.7909H17.5921V19.5909ZM17.6081 19.5909H17.5921V20.7909H17.6081V19.5909ZM17.6242 19.5909H17.6081V20.7909H17.6242V19.5909ZM17.6403 19.5909H17.6242V20.7909H17.6403V19.5909ZM17.6564 19.5909H17.6403V20.7909H17.6564V19.5909ZM17.6725 19.5909H17.6564V20.7909H17.6725V19.5909ZM17.6886 19.5909H17.6725V20.7909H17.6886V19.5909ZM17.7047 19.5909H17.6886V20.7909H17.7047V19.5909ZM19.0824 18.0289C19.0824 18.9456 18.4138 19.5909 17.7047 19.5909V20.7909C19.172 20.7909 20.2824 19.5086 20.2824 18.0289H19.0824ZM8.2166 5.11452C8.2166 4.19784 8.88514 3.55254 9.59425 3.55254V2.35254C8.12692 2.35254 7.0166 3.63478 7.0166 5.11452H8.2166ZM8.2166 5.14016V5.11452H7.0166V5.14016H8.2166ZM8.2166 5.16579V5.14016H7.0166V5.16579H8.2166ZM8.2166 5.1914V5.16579H7.0166V5.1914H8.2166ZM8.2166 5.217V5.1914H7.0166V5.217H8.2166ZM8.2166 5.24258V5.217H7.0166V5.24258H8.2166ZM8.2166 5.26815V5.24258H7.0166V5.26815H8.2166ZM8.2166 5.29369V5.26815H7.0166V5.29369H8.2166ZM8.2166 5.31923V5.29369H7.0166V5.31923H8.2166ZM8.2166 5.34474V5.31923H7.0166V5.34474H8.2166ZM8.2166 5.37025V5.34474H7.0166V5.37025H8.2166ZM8.2166 5.39573V5.37025H7.0166V5.39573H8.2166ZM8.2166 5.4212V5.39573H7.0166V5.4212H8.2166ZM8.2166 5.44665V5.4212H7.0166V5.44665H8.2166ZM8.2166 5.47209V5.44665H7.0166V5.47209H8.2166ZM8.2166 5.49751V5.47209H7.0166V5.49751H8.2166ZM8.2166 5.52291V5.49751H7.0166V5.52291H8.2166ZM8.2166 5.5483V5.52291H7.0166V5.5483H8.2166ZM8.2166 5.57367V5.5483H7.0166V5.57367H8.2166ZM8.2166 5.59903V5.57367H7.0166V5.59903H8.2166ZM8.2166 5.62437V5.59903H7.0166V5.62437H8.2166ZM8.2166 5.64969V5.62437H7.0166V5.64969H8.2166ZM8.2166 5.675V5.64969H7.0166V5.675H8.2166ZM8.2166 5.70029V5.675H7.0166V5.70029H8.2166ZM8.2166 5.72556V5.70029H7.0166V5.72556H8.2166ZM8.2166 5.75082V5.72556H7.0166V5.75082H8.2166ZM8.2166 5.77606V5.75082H7.0166V5.77606H8.2166ZM8.2166 5.80128V5.77606H7.0166V5.80128H8.2166ZM8.2166 5.82649V5.80128H7.0166V5.82649H8.2166ZM8.2166 5.85168V5.82649H7.0166V5.85168H8.2166ZM8.2166 5.87685V5.85168H7.0166V5.87685H8.2166ZM8.2166 5.90201V5.87685H7.0166V5.90201H8.2166ZM8.2166 5.92715V5.90201H7.0166V5.92715H8.2166ZM8.2166 5.95227V5.92715H7.0166V5.95227H8.2166ZM8.2166 5.97738V5.95227H7.0166V5.97738H8.2166ZM8.2166 6.00247V5.97738H7.0166V6.00247H8.2166ZM8.2166 6.02754V6.00247H7.0166V6.02754H8.2166ZM8.2166 6.05259V6.02754H7.0166V6.05259H8.2166ZM8.2166 6.07763V6.05259H7.0166V6.07763H8.2166ZM8.2166 6.10265V6.07763H7.0166V6.10265H8.2166ZM8.2166 6.12766V6.10265H7.0166V6.12766H8.2166ZM8.2166 6.15264V6.12766H7.0166V6.15264H8.2166ZM8.2166 6.17761V6.15264H7.0166V6.17761H8.2166ZM8.2166 6.20257V6.17761H7.0166V6.20257H8.2166ZM8.2166 6.2275V6.20257H7.0166V6.2275H8.2166ZM8.2166 6.25242V6.2275H7.0166V6.25242H8.2166ZM8.2166 6.27732V6.25242H7.0166V6.27732H8.2166ZM8.2166 6.3022V6.27732H7.0166V6.3022H8.2166ZM8.2166 6.32707V6.3022H7.0166V6.32707H8.2166ZM8.2166 6.35192V6.32707H7.0166V6.35192H8.2166ZM8.2166 6.37675V6.35192H7.0166V6.37675H8.2166ZM8.2166 6.40156V6.37675H7.0166V6.40156H8.2166ZM8.2166 6.42636V6.40156H7.0166V6.42636H8.2166ZM8.2166 6.45114V6.42636H7.0166V6.45114H8.2166ZM8.2166 6.4759V6.45114H7.0166V6.4759H8.2166ZM8.2166 6.50064V6.4759H7.0166V6.50064H8.2166ZM8.2166 6.52537V6.50064H7.0166V6.52537H8.2166ZM8.2166 6.55008V6.52537H7.0166V6.55008H8.2166ZM8.2166 6.57477V6.55008H7.0166V6.57477H8.2166ZM8.2166 6.59944V6.57477H7.0166V6.59944H8.2166ZM8.2166 6.62409V6.59944H7.0166V6.62409H8.2166ZM8.2166 6.64873V6.62409H7.0166V6.64873H8.2166ZM8.2166 6.67335V6.64873H7.0166V6.67335H8.2166ZM8.2166 6.69795V6.67335H7.0166V6.69795H8.2166ZM8.2166 6.72253V6.69795H7.0166V6.72253H8.2166ZM8.2166 6.7471V6.72253H7.0166V6.7471H8.2166ZM8.2166 6.77164V6.7471H7.0166V6.77164H8.2166ZM8.2166 6.79617V6.77164H7.0166V6.79617H8.2166ZM8.2166 6.82068V6.79617H7.0166V6.82068H8.2166ZM8.2166 6.84517V6.82068H7.0166V6.84517H8.2166ZM8.2166 6.86965V6.84517H7.0166V6.86965H8.2166ZM8.2166 6.8941V6.86965H7.0166V6.8941H8.2166ZM8.2166 6.91854V6.8941H7.0166V6.91854H8.2166ZM8.2166 6.94296V6.91854H7.0166V6.94296H8.2166ZM8.2166 6.96736V6.94296H7.0166V6.96736H8.2166ZM8.2166 6.99175V6.96736H7.0166V6.99175H8.2166ZM8.2166 7.01611V6.99175H7.0166V7.01611H8.2166ZM8.2166 7.04046V7.01611H7.0166V7.04046H8.2166ZM8.2166 7.06478V7.04046H7.0166V7.06478H8.2166ZM8.2166 7.08909V7.06478H7.0166V7.08909H8.2166ZM8.2166 7.11338V7.08909H7.0166V7.11338H8.2166ZM8.2166 7.13765V7.11338H7.0166V7.13765H8.2166ZM8.2166 7.16191V7.13765H7.0166V7.16191H8.2166ZM8.2166 7.18614V7.16191H7.0166V7.18614H8.2166ZM8.2166 7.21036V7.18614H7.0166V7.21036H8.2166ZM8.2166 7.23455V7.21036H7.0166V7.23455H8.2166ZM8.2166 7.25873V7.23455H7.0166V7.25873H8.2166ZM8.2166 7.28289V7.25873H7.0166V7.28289H8.2166ZM8.2166 7.30703V7.28289H7.0166V7.30703H8.2166ZM8.2166 7.33115V7.30703H7.0166V7.33115H8.2166ZM8.2166 7.35525V7.33115H7.0166V7.35525H8.2166ZM8.2166 7.37934V7.35525H7.0166V7.37934H8.2166ZM8.2166 7.4034V7.37934H7.0166V7.4034H8.2166ZM8.2166 7.42745V7.4034H7.0166V7.42745H8.2166ZM8.2166 7.45147V7.42745H7.0166V7.45147H8.2166ZM8.2166 7.47548V7.45147H7.0166V7.47548H8.2166ZM8.2166 7.49947V7.47548H7.0166V7.49947H8.2166ZM8.2166 7.52344V7.49947H7.0166V7.52344H8.2166ZM8.2166 7.54739V7.52344H7.0166V7.54739H8.2166ZM8.2166 7.57132V7.54739H7.0166V7.57132H8.2166ZM8.2166 7.59523V7.57132H7.0166V7.59523H8.2166ZM8.2166 7.61912V7.59523H7.0166V7.61912H8.2166ZM8.2166 7.64299V7.61912H7.0166V7.64299H8.2166ZM8.2166 7.66685V7.64299H7.0166V7.66685H8.2166ZM8.2166 7.69068V7.66685H7.0166V7.69068H8.2166ZM8.2166 7.71449V7.69068H7.0166V7.71449H8.2166ZM8.2166 7.73829V7.71449H7.0166V7.73829H8.2166ZM8.2166 7.76206V7.73829H7.0166V7.76206H8.2166ZM8.2166 7.78582V7.76206H7.0166V7.78582H8.2166ZM8.2166 7.80956V7.78582H7.0166V7.80956H8.2166ZM8.2166 7.83327V7.80956H7.0166V7.83327H8.2166ZM8.2166 7.85697V7.83327H7.0166V7.85697H8.2166ZM8.2166 7.88064V7.85697H7.0166V7.88064H8.2166ZM8.2166 7.9043V7.88064H7.0166V7.9043H8.2166ZM8.2166 7.92794V7.9043H7.0166V7.92794H8.2166ZM8.2166 7.95156V7.92794H7.0166V7.95156H8.2166ZM8.2166 7.97515V7.95156H7.0166V7.97515H8.2166ZM8.2166 7.99873V7.97515H7.0166V7.99873H8.2166ZM8.2166 8.02229V7.99873H7.0166V8.02229H8.2166ZM8.2166 8.04583V8.02229H7.0166V8.04583H8.2166ZM8.2166 8.06934V8.04583H7.0166V8.06934H8.2166ZM8.2166 8.09284V8.06934H7.0166V8.09284H8.2166ZM8.2166 8.11632V8.09284H7.0166V8.11632H8.2166ZM8.2166 8.13978V8.11632H7.0166V8.13978H8.2166ZM8.2166 8.16321V8.13978H7.0166V8.16321H8.2166ZM8.2166 8.18663V8.16321H7.0166V8.18663H8.2166ZM8.2166 8.21003V8.18663H7.0166V8.21003H8.2166ZM8.2166 8.2334V8.21003H7.0166V8.2334H8.2166ZM8.2166 8.25676V8.2334H7.0166V8.25676H8.2166ZM8.2166 8.28009V8.25676H7.0166V8.28009H8.2166ZM8.2166 8.30341V8.28009H7.0166V8.30341H8.2166ZM8.2166 8.3267V8.30341H7.0166V8.3267H8.2166ZM8.2166 8.34998V8.3267H7.0166V8.34998H8.2166ZM8.2166 8.37323V8.34998H7.0166V8.37323H8.2166ZM8.2166 8.39647V8.37323H7.0166V8.39647H8.2166ZM8.2166 8.41968V8.39647H7.0166V8.41968H8.2166ZM8.2166 8.44287V8.41968H7.0166V8.44287H8.2166ZM8.2166 8.46604V8.44287H7.0166V8.46604H8.2166ZM8.2166 8.48919V8.46604H7.0166V8.48919H8.2166ZM8.2166 8.51232V8.48919H7.0166V8.51232H8.2166ZM8.2166 8.53543V8.51232H7.0166V8.53543H8.2166ZM8.2166 8.55852V8.53543H7.0166V8.55852H8.2166ZM8.2166 8.58159V8.55852H7.0166V8.58159H8.2166ZM8.2166 8.60463V8.58159H7.0166V8.60463H8.2166ZM8.2166 8.62766V8.60463H7.0166V8.62766H8.2166ZM8.2166 8.65066V8.62766H7.0166V8.65066H8.2166ZM8.2166 8.67365V8.65066H7.0166V8.67365H8.2166ZM8.2166 8.69661V8.67365H7.0166V8.69661H8.2166ZM8.2166 8.71955V8.69661H7.0166V8.71955H8.2166ZM8.2166 8.74247V8.71955H7.0166V8.74247H8.2166ZM8.2166 8.76537V8.74247H7.0166V8.76537H8.2166ZM8.2166 8.78825V8.76537H7.0166V8.78825H8.2166ZM8.2166 8.81111V8.78825H7.0166V8.81111H8.2166ZM8.2166 8.83395V8.81111H7.0166V8.83395H8.2166ZM8.2166 8.85676V8.83395H7.0166V8.85676H8.2166ZM8.2166 8.87955V8.85676H7.0166V8.87955H8.2166ZM8.2166 8.90233V8.87955H7.0166V8.90233H8.2166ZM8.2166 8.92508V8.90233H7.0166V8.92508H8.2166ZM8.2166 8.94781V8.92508H7.0166V8.94781H8.2166ZM8.2166 8.97051V8.94781H7.0166V8.97051H8.2166ZM8.2166 8.9932V8.97051H7.0166V8.9932H8.2166ZM8.2166 9.01586V8.9932H7.0166V9.01586H8.2166ZM8.2166 9.03851V9.01586H7.0166V9.03851H8.2166ZM8.2166 9.06113V9.03851H7.0166V9.06113H8.2166ZM8.2166 9.08373V9.06113H7.0166V9.08373H8.2166ZM8.2166 9.10631V9.08373H7.0166V9.10631H8.2166ZM8.2166 9.12886V9.10631H7.0166V9.12886H8.2166ZM8.2166 9.1514V9.12886H7.0166V9.1514H8.2166ZM8.2166 9.17391V9.1514H7.0166V9.17391H8.2166ZM8.2166 9.1964V9.17391H7.0166V9.1964H8.2166ZM8.2166 9.21887V9.1964H7.0166V9.21887H8.2166ZM8.2166 9.24132V9.21887H7.0166V9.24132H8.2166ZM8.2166 9.26375V9.24132H7.0166V9.26375H8.2166ZM8.2166 9.28615V9.26375H7.0166V9.28615H8.2166ZM8.2166 9.30853V9.28615H7.0166V9.30853H8.2166ZM8.2166 9.33089V9.30853H7.0166V9.33089H8.2166ZM8.2166 9.35323V9.33089H7.0166V9.35323H8.2166ZM8.2166 9.37554V9.35323H7.0166V9.37554H8.2166ZM8.2166 9.39784V9.37554H7.0166V9.39784H8.2166ZM8.2166 9.42011V9.39784H7.0166V9.42011H8.2166ZM8.2166 9.44235V9.42011H7.0166V9.44235H8.2166ZM8.2166 9.46458V9.44235H7.0166V9.46458H8.2166ZM8.2166 9.48679V9.46458H7.0166V9.48679H8.2166ZM8.2166 9.50897V9.48679H7.0166V9.50897H8.2166ZM8.2166 9.53113V9.50897H7.0166V9.53113H8.2166ZM8.2166 9.55326V9.53113H7.0166V9.55326H8.2166ZM8.2166 9.57538V9.55326H7.0166V9.57538H8.2166ZM8.2166 9.59747V9.57538H7.0166V9.59747H8.2166ZM8.2166 9.61954V9.59747H7.0166V9.61954H8.2166ZM8.2166 9.64159V9.61954H7.0166V9.64159H8.2166ZM8.2166 9.66361V9.64159H7.0166V9.66361H8.2166ZM8.2166 9.68561V9.66361H7.0166V9.68561H8.2166ZM8.2166 9.70759V9.68561H7.0166V9.70759H8.2166ZM8.2166 9.72955V9.70759H7.0166V9.72955H8.2166ZM8.2166 9.75148V9.72955H7.0166V9.75148H8.2166ZM8.2166 9.77339V9.75148H7.0166V9.77339H8.2166ZM8.2166 9.79528V9.77339H7.0166V9.79528H8.2166ZM8.2166 9.81715V9.79528H7.0166V9.81715H8.2166ZM8.2166 9.83899V9.81715H7.0166V9.83899H8.2166ZM8.2166 9.86081V9.83899H7.0166V9.86081H8.2166ZM8.2166 9.8826V9.86081H7.0166V9.8826H8.2166ZM8.2166 9.90438V9.8826H7.0166V9.90438H8.2166ZM8.2166 9.92613V9.90438H7.0166V9.92613H8.2166ZM8.2166 9.94785V9.92613H7.0166V9.94785H8.2166ZM8.2166 9.96956V9.94785H7.0166V9.96956H8.2166ZM8.2166 9.99124V9.96956H7.0166V9.99124H8.2166ZM8.2166 10.0129V9.99124H7.0166V10.0129H8.2166ZM8.2166 10.0345V10.0129H7.0166V10.0345H8.2166ZM8.2166 10.0561V10.0345H7.0166V10.0561H8.2166ZM8.2166 10.0777V10.0561H7.0166V10.0777H8.2166ZM8.2166 10.0993V10.0777H7.0166V10.0993H8.2166ZM8.2166 10.1208V10.0993H7.0166V10.1208H8.2166ZM8.2166 10.1424V10.1208H7.0166V10.1424H8.2166ZM8.2166 10.1639V10.1424H7.0166V10.1639H8.2166ZM8.2166 10.1853V10.1639H7.0166V10.1853H8.2166ZM8.2166 10.2068V10.1853H7.0166V10.2068H8.2166ZM8.2166 10.2282V10.2068H7.0166V10.2282H8.2166ZM8.2166 10.2496V10.2282H7.0166V10.2496H8.2166ZM8.2166 10.271V10.2496H7.0166V10.271H8.2166ZM8.2166 10.2923V10.271H7.0166V10.2923H8.2166ZM8.2166 10.3137V10.2923H7.0166V10.3137H8.2166ZM8.2166 10.335V10.3137H7.0166V10.335H8.2166ZM8.2166 10.3562V10.335H7.0166V10.3562H8.2166ZM8.2166 10.3775V10.3562H7.0166V10.3775H8.2166ZM8.2166 10.3987V10.3775H7.0166V10.3987H8.2166ZM8.2166 10.4199V10.3987H7.0166V10.4199H8.2166ZM8.2166 10.4411V10.4199H7.0166V10.4411H8.2166ZM8.2166 10.4623V10.4411H7.0166V10.4623H8.2166ZM8.2166 10.4834V10.4623H7.0166V10.4834H8.2166ZM8.2166 10.5045V10.4834H7.0166V10.5045H8.2166ZM8.2166 10.5256V10.5045H7.0166V10.5256H8.2166ZM8.2166 10.5467V10.5256H7.0166V10.5467H8.2166ZM8.2166 10.5677V10.5467H7.0166V10.5677H8.2166ZM8.2166 10.5888V10.5677H7.0166V10.5888H8.2166ZM8.2166 10.6098V10.5888H7.0166V10.6098H8.2166ZM8.2166 10.6307V10.6098H7.0166V10.6307H8.2166ZM8.2166 10.6517V10.6307H7.0166V10.6517H8.2166ZM8.2166 10.6726V10.6517H7.0166V10.6726H8.2166ZM8.2166 10.6935V10.6726H7.0166V10.6935H8.2166ZM8.2166 10.7144V10.6935H7.0166V10.7144H8.2166ZM8.2166 10.7352V10.7144H7.0166V10.7352H8.2166ZM8.2166 10.756V10.7352H7.0166V10.756H8.2166ZM8.2166 10.7768V10.756H7.0166V10.7768H8.2166ZM8.2166 10.7976V10.7768H7.0166V10.7976H8.2166ZM8.2166 10.8184V10.7976H7.0166V10.8184H8.2166ZM8.2166 10.8391V10.8184H7.0166V10.8391H8.2166ZM8.2166 10.8598V10.8391H7.0166V10.8598H8.2166ZM8.2166 10.8805V10.8598H7.0166V10.8805H8.2166ZM8.2166 10.9011V10.8805H7.0166V10.9011H8.2166ZM8.2166 10.9217V10.9011H7.0166V10.9217H8.2166ZM8.2166 10.9423V10.9217H7.0166V10.9423H8.2166ZM8.2166 10.9629V10.9423H7.0166V10.9629H8.2166ZM8.2166 10.9835V10.9629H7.0166V10.9835H8.2166ZM8.2166 11.004V10.9835H7.0166V11.004H8.2166ZM8.2166 11.0245V11.004H7.0166V11.0245H8.2166ZM8.2166 11.045V11.0245H7.0166V11.045H8.2166ZM8.2166 11.0654V11.045H7.0166V11.0654H8.2166ZM8.2166 11.0859V11.0654H7.0166V11.0859H8.2166ZM8.2166 11.1063V11.0859H7.0166V11.1063H8.2166ZM8.2166 11.1266V11.1063H7.0166V11.1266H8.2166ZM8.2166 11.147V11.1266H7.0166V11.147H8.2166ZM8.2166 11.1673V11.147H7.0166V11.1673H8.2166ZM8.2166 11.1876V11.1673H7.0166V11.1876H8.2166ZM8.2166 11.2079V11.1876H7.0166V11.2079H8.2166ZM8.2166 11.2281V11.2079H7.0166V11.2281H8.2166ZM8.2166 11.2484V11.2281H7.0166V11.2484H8.2166ZM8.2166 11.2686V11.2484H7.0166V11.2686H8.2166ZM8.2166 11.2887V11.2686H7.0166V11.2887H8.2166ZM8.2166 11.3089V11.2887H7.0166V11.3089H8.2166ZM8.2166 11.329V11.3089H7.0166V11.329H8.2166ZM8.2166 11.3491V11.329H7.0166V11.3491H8.2166ZM8.2166 11.3692V11.3491H7.0166V11.3692H8.2166ZM8.2166 11.3892V11.3692H7.0166V11.3892H8.2166ZM8.2166 11.4092V11.3892H7.0166V11.4092H8.2166ZM8.2166 11.4292V11.4092H7.0166V11.4292H8.2166ZM8.2166 11.4492V11.4292H7.0166V11.4492H8.2166ZM8.2166 11.4692V11.4492H7.0166V11.4692H8.2166ZM8.2166 11.4891V11.4692H7.0166V11.4891H8.2166ZM8.2166 11.509V11.4891H7.0166V11.509H8.2166ZM8.2166 11.5288V11.509H7.0166V11.5288H8.2166ZM8.2166 11.5487V11.5288H7.0166V11.5487H8.2166ZM8.2166 11.5685V11.5487H7.0166V11.5685H8.2166ZM8.2166 11.5883V11.5685H7.0166V11.5883H8.2166ZM8.2166 11.608V11.5883H7.0166V11.608H8.2166ZM8.2166 11.6278V11.608H7.0166V11.6278H8.2166ZM8.2166 11.6475V11.6278H7.0166V11.6475H8.2166ZM8.2166 11.6672V11.6475H7.0166V11.6672H8.2166ZM8.2166 11.6868V11.6672H7.0166V11.6868H8.2166ZM8.2166 11.7065V11.6868H7.0166V11.7065H8.2166ZM8.2166 11.7261V11.7065H7.0166V11.7261H8.2166ZM8.2166 11.7457V11.7261H7.0166V11.7457H8.2166ZM8.2166 11.7652V11.7457H7.0166V11.7652H8.2166ZM8.2166 11.7847V11.7652H7.0166V11.7847H8.2166ZM8.2166 11.8042V11.7847H7.0166V11.8042H8.2166ZM8.2166 11.8237V11.8042H7.0166V11.8237H8.2166ZM8.2166 11.8432V11.8237H7.0166V11.8432H8.2166ZM8.2166 11.8626V11.8432H7.0166V11.8626H8.2166ZM8.2166 11.882V11.8626H7.0166V11.882H8.2166ZM8.2166 11.9013V11.882H7.0166V11.9013H8.2166ZM8.2166 11.9207V11.9013H7.0166V11.9207H8.2166ZM8.2166 11.94V11.9207H7.0166V11.94H8.2166ZM8.2166 11.9593V11.94H7.0166V11.9593H8.2166ZM8.2166 11.9785V11.9593H7.0166V11.9785H8.2166ZM8.2166 11.9978V11.9785H7.0166V11.9978H8.2166ZM8.2166 12.017V11.9978H7.0166V12.017H8.2166ZM8.2166 12.0362V12.017H7.0166V12.0362H8.2166ZM8.2166 12.0553V12.0362H7.0166V12.0553H8.2166ZM8.2166 12.0745V12.0553H7.0166V12.0745H8.2166ZM8.2166 12.0936V12.0745H7.0166V12.0936H8.2166ZM8.2166 12.1126V12.0936H7.0166V12.1126H8.2166ZM8.2166 12.1317V12.1126H7.0166V12.1317H8.2166ZM8.2166 12.1507V12.1317H7.0166V12.1507H8.2166ZM8.2166 12.1697V12.1507H7.0166V12.1697H8.2166ZM8.2166 12.1887V12.1697H7.0166V12.1887H8.2166ZM8.2166 12.2076V12.1887H7.0166V12.2076H8.2166ZM8.2166 12.2265V12.2076H7.0166V12.2265H8.2166ZM8.2166 12.2454V12.2265H7.0166V12.2454H8.2166ZM8.2166 12.2642V12.2454H7.0166V12.2642H8.2166ZM8.2166 12.2831V12.2642H7.0166V12.2831H8.2166ZM8.2166 12.3019V12.2831H7.0166V12.3019H8.2166ZM8.2166 12.3207V12.3019H7.0166V12.3207H8.2166ZM8.2166 12.3394V12.3207H7.0166V12.3394H8.2166ZM8.2166 12.3581V12.3394H7.0166V12.3581H8.2166ZM8.2166 12.3768V12.3581H7.0166V12.3768H8.2166ZM8.2166 12.3955V12.3768H7.0166V12.3955H8.2166ZM8.2166 12.4141V12.3955H7.0166V12.4141H8.2166ZM8.2166 12.4327V12.4141H7.0166V12.4327H8.2166ZM8.2166 12.4513V12.4327H7.0166V12.4513H8.2166ZM8.2166 12.4699V12.4513H7.0166V12.4699H8.2166ZM8.2166 12.4884V12.4699H7.0166V12.4884H8.2166ZM8.2166 12.5069V12.4884H7.0166V12.5069H8.2166ZM8.2166 12.5254V12.5069H7.0166V12.5254H8.2166ZM8.2166 12.5438V12.5254H7.0166V12.5438H8.2166ZM8.2166 12.5622V12.5438H7.0166V12.5622H8.2166ZM8.2166 12.5806V12.5622H7.0166V12.5806H8.2166ZM8.2166 12.599V12.5806H7.0166V12.599H8.2166ZM8.2166 12.6173V12.599H7.0166V12.6173H8.2166ZM8.2166 12.6356V12.6173H7.0166V12.6356H8.2166ZM8.2166 12.6539V12.6356H7.0166V12.6539H8.2166ZM8.2166 12.6721V12.6539H7.0166V12.6721H8.2166ZM8.2166 12.6903V12.6721H7.0166V12.6903H8.2166ZM8.2166 12.7085V12.6903H7.0166V12.7085H8.2166ZM8.2166 12.7267V12.7085H7.0166V12.7267H8.2166ZM8.2166 12.7448V12.7267H7.0166V12.7448H8.2166ZM8.2166 12.7629V12.7448H7.0166V12.7629H8.2166ZM8.2166 12.781V12.7629H7.0166V12.781H8.2166ZM8.2166 12.7991V12.781H7.0166V12.7991H8.2166ZM8.2166 12.8171V12.7991H7.0166V12.8171H8.2166ZM8.2166 12.8351V12.8171H7.0166V12.8351H8.2166ZM8.2166 12.8531V12.8351H7.0166V12.8531H8.2166ZM8.2166 12.871V12.8531H7.0166V12.871H8.2166ZM8.2166 12.8889V12.871H7.0166V12.8889H8.2166ZM8.2166 12.9068V12.8889H7.0166V12.9068H8.2166ZM8.2166 12.9246V12.9068H7.0166V12.9246H8.2166ZM8.2166 12.9425V12.9246H7.0166V12.9425H8.2166ZM8.2166 12.9603V12.9425H7.0166V12.9603H8.2166ZM8.2166 12.978V12.9603H7.0166V12.978H8.2166ZM8.2166 12.9958V12.978H7.0166V12.9958H8.2166ZM8.2166 13.0135V12.9958H7.0166V13.0135H8.2166ZM8.2166 13.0311V13.0135H7.0166V13.0311H8.2166ZM8.2166 13.0488V13.0311H7.0166V13.0488H8.2166ZM8.2166 13.0664V13.0488H7.0166V13.0664H8.2166ZM8.2166 13.084V13.0664H7.0166V13.084H8.2166ZM8.2166 13.1016V13.084H7.0166V13.1016H8.2166ZM8.2166 13.1191V13.1016H7.0166V13.1191H8.2166ZM8.2166 13.1366V13.1191H7.0166V13.1366H8.2166ZM8.2166 13.1541V13.1366H7.0166V13.1541H8.2166ZM8.2166 13.1715V13.1541H7.0166V13.1715H8.2166ZM8.2166 13.189V13.1715H7.0166V13.189H8.2166ZM8.2166 13.2063V13.189H7.0166V13.2063H8.2166ZM8.2166 13.2237V13.2063H7.0166V13.2237H8.2166ZM8.2166 13.241V13.2237H7.0166V13.241H8.2166ZM8.2166 13.2583V13.241H7.0166V13.2583H8.2166ZM8.2166 13.2756V13.2583H7.0166V13.2756H8.2166ZM8.2166 13.2929V13.2756H7.0166V13.2929H8.2166ZM8.2166 13.3101V13.2929H7.0166V13.3101H8.2166ZM8.2166 13.3273V13.3101H7.0166V13.3273H8.2166ZM8.2166 13.3444V13.3273H7.0166V13.3444H8.2166ZM8.2166 13.3615V13.3444H7.0166V13.3615H8.2166ZM8.2166 13.3786V13.3615H7.0166V13.3786H8.2166ZM8.2166 13.3957V13.3786H7.0166V13.3957H8.2166ZM8.2166 13.4127V13.3957H7.0166V13.4127H8.2166ZM8.2166 13.4297V13.4127H7.0166V13.4297H8.2166ZM8.2166 13.4467V13.4297H7.0166V13.4467H8.2166ZM8.2166 13.4637V13.4467H7.0166V13.4637H8.2166ZM8.2166 13.4806V13.4637H7.0166V13.4806H8.2166ZM8.2166 13.4975V13.4806H7.0166V13.4975H8.2166ZM8.2166 13.5143V13.4975H7.0166V13.5143H8.2166ZM8.2166 13.5312V13.5143H7.0166V13.5312H8.2166ZM8.2166 13.548V13.5312H7.0166V13.548H8.2166ZM8.2166 13.5647V13.548H7.0166V13.5647H8.2166ZM8.2166 13.5815V13.5647H7.0166V13.5815H8.2166ZM8.2166 13.5982V13.5815H7.0166V13.5982H8.2166ZM8.2166 13.6149V13.5982H7.0166V13.6149H8.2166ZM8.2166 13.6315V13.6149H7.0166V13.6315H8.2166ZM8.2166 13.6481V13.6315H7.0166V13.6481H8.2166ZM8.2166 13.6647V13.6481H7.0166V13.6647H8.2166ZM8.2166 13.6813V13.6647H7.0166V13.6813H8.2166ZM8.2166 13.6978V13.6813H7.0166V13.6978H8.2166ZM8.2166 13.7143V13.6978H7.0166V13.7143H8.2166ZM8.2166 13.7308V13.7143H7.0166V13.7308H8.2166ZM8.2166 13.7472V13.7308H7.0166V13.7472H8.2166ZM8.2166 13.7636V13.7472H7.0166V13.7636H8.2166ZM8.2166 13.78V13.7636H7.0166V13.78H8.2166ZM8.2166 13.7963V13.78H7.0166V13.7963H8.2166ZM8.2166 13.8126V13.7963H7.0166V13.8126H8.2166ZM8.2166 13.8289V13.8126H7.0166V13.8289H8.2166ZM8.2166 13.8452V13.8289H7.0166V13.8452H8.2166ZM8.2166 13.8614V13.8452H7.0166V13.8614H8.2166ZM8.2166 13.8776V13.8614H7.0166V13.8776H8.2166ZM8.2166 13.8938V13.8776H7.0166V13.8938H8.2166ZM8.2166 13.9099V13.8938H7.0166V13.9099H8.2166ZM8.2166 13.926V13.9099H7.0166V13.926H8.2166ZM8.2166 13.9421V13.926H7.0166V13.9421H8.2166ZM8.2166 13.9581V13.9421H7.0166V13.9581H8.2166ZM8.2166 13.9741V13.9581H7.0166V13.9741H8.2166ZM8.2166 13.9901V13.9741H7.0166V13.9901H8.2166ZM8.2166 14.006V13.9901H7.0166V14.006H8.2166ZM8.2166 14.022V14.006H7.0166V14.022H8.2166ZM8.2166 14.0378V14.022H7.0166V14.0378H8.2166ZM8.2166 14.0537V14.0378H7.0166V14.0537H8.2166ZM8.2166 14.0695V14.0537H7.0166V14.0695H8.2166ZM8.2166 14.0853V14.0695H7.0166V14.0853H8.2166ZM8.2166 14.1011V14.0853H7.0166V14.1011H8.2166ZM8.2166 14.1168V14.1011H7.0166V14.1168H8.2166ZM8.2166 14.1325V14.1168H7.0166V14.1325H8.2166ZM8.2166 14.1482V14.1325H7.0166V14.1482H8.2166ZM8.2166 14.1638V14.1482H7.0166V14.1638H8.2166ZM8.2166 14.1794V14.1638H7.0166V14.1794H8.2166ZM8.2166 14.195V14.1794H7.0166V14.195H8.2166ZM8.2166 14.2105V14.195H7.0166V14.2105H8.2166ZM8.2166 14.226V14.2105H7.0166V14.226H8.2166ZM8.2166 14.2415V14.226H7.0166V14.2415H8.2166ZM8.2166 14.257V14.2415H7.0166V14.257H8.2166ZM8.2166 14.2724V14.257H7.0166V14.2724H8.2166ZM8.2166 14.2878V14.2724H7.0166V14.2878H8.2166ZM8.2166 14.3031V14.2878H7.0166V14.3031H8.2166ZM8.2166 14.3184V14.3031H7.0166V14.3184H8.2166ZM8.2166 14.3337V14.3184H7.0166V14.3337H8.2166ZM8.2166 14.349V14.3337H7.0166V14.349H8.2166ZM8.2166 14.3642V14.349H7.0166V14.3642H8.2166ZM8.2166 14.3794V14.3642H7.0166V14.3794H8.2166ZM8.2166 14.3946V14.3794H7.0166V14.3946H8.2166ZM8.2166 14.4097V14.3946H7.0166V14.4097H8.2166ZM8.2166 14.4248V14.4097H7.0166V14.4248H8.2166ZM8.2166 14.4399V14.4248H7.0166V14.4399H8.2166ZM8.2166 14.4549V14.4399H7.0166V14.4549H8.2166ZM8.2166 14.4699V14.4549H7.0166V14.4699H8.2166ZM8.2166 14.4849V14.4699H7.0166V14.4849H8.2166ZM8.2166 14.4998V14.4849H7.0166V14.4998H8.2166ZM8.2166 14.5147V14.4998H7.0166V14.5147H8.2166ZM8.2166 14.5296V14.5147H7.0166V14.5296H8.2166ZM8.2166 14.5444V14.5296H7.0166V14.5444H8.2166ZM8.2166 14.5592V14.5444H7.0166V14.5592H8.2166ZM8.2166 14.574V14.5592H7.0166V14.574H8.2166ZM8.2166 14.5888V14.574H7.0166V14.5888H8.2166ZM8.2166 14.6035V14.5888H7.0166V14.6035H8.2166ZM8.2166 14.6181V14.6035H7.0166V14.6181H8.2166ZM8.2166 14.6328V14.6181H7.0166V14.6328H8.2166ZM8.2166 14.6474V14.6328H7.0166V14.6474H8.2166ZM8.2166 14.662V14.6474H7.0166V14.662H8.2166ZM8.2166 14.6765V14.662H7.0166V14.6765H8.2166ZM8.2166 14.6911V14.6765H7.0166V14.6911H8.2166ZM8.2166 14.7055V14.6911H7.0166V14.7055H8.2166ZM8.2166 14.72V14.7055H7.0166V14.72H8.2166ZM8.2166 14.7344V14.72H7.0166V14.7344H8.2166ZM8.2166 14.7488V14.7344H7.0166V14.7488H8.2166ZM8.2166 14.7632V14.7488H7.0166V14.7632H8.2166ZM8.2166 14.7775V14.7632H7.0166V14.7775H8.2166ZM8.2166 14.7918V14.7775H7.0166V14.7918H8.2166ZM8.2166 14.806V14.7918H7.0166V14.806H8.2166ZM8.2166 14.8203V14.806H7.0166V14.8203H8.2166ZM8.2166 14.8344V14.8203H7.0166V14.8344H8.2166ZM8.2166 14.8486V14.8344H7.0166V14.8486H8.2166ZM8.2166 14.8627V14.8486H7.0166V14.8627H8.2166ZM8.2166 14.8768V14.8627H7.0166V14.8768H8.2166ZM8.2166 14.8909V14.8768H7.0166V14.8909H8.2166ZM8.2166 14.9049V14.8909H7.0166V14.9049H8.2166ZM8.2166 14.9189V14.9049H7.0166V14.9189H8.2166ZM8.2166 14.9328V14.9189H7.0166V14.9328H8.2166ZM8.2166 14.9468V14.9328H7.0166V14.9468H8.2166ZM8.2166 14.9607V14.9468H7.0166V14.9607H8.2166ZM8.2166 14.9745V14.9607H7.0166V14.9745H8.2166ZM8.2166 14.9883V14.9745H7.0166V14.9883H8.2166ZM8.2166 15.0021V14.9883H7.0166V15.0021H8.2166ZM8.2166 15.0159V15.0021H7.0166V15.0159H8.2166ZM8.2166 15.0296V15.0159H7.0166V15.0296H8.2166ZM8.2166 15.0433V15.0296H7.0166V15.0433H8.2166ZM8.2166 15.057V15.0433H7.0166V15.057H8.2166ZM8.2166 15.0706V15.057H7.0166V15.0706H8.2166ZM8.2166 15.0842V15.0706H7.0166V15.0842H8.2166ZM8.2166 15.0977V15.0842H7.0166V15.0977H8.2166ZM8.2166 15.1113V15.0977H7.0166V15.1113H8.2166ZM8.2166 15.1248V15.1113H7.0166V15.1248H8.2166ZM8.2166 15.1382V15.1248H7.0166V15.1382H8.2166ZM8.2166 15.1516V15.1382H7.0166V15.1516H8.2166ZM8.2166 15.165V15.1516H7.0166V15.165H8.2166ZM8.2166 15.1784V15.165H7.0166V15.1784H8.2166ZM8.2166 15.1917V15.1784H7.0166V15.1917H8.2166ZM8.2166 15.205V15.1917H7.0166V15.205H8.2166ZM8.2166 15.2182V15.205H7.0166V15.2182H8.2166ZM8.2166 15.2315V15.2182H7.0166V15.2315H8.2166ZM8.2166 15.2447V15.2315H7.0166V15.2447H8.2166ZM8.2166 15.2578V15.2447H7.0166V15.2578H8.2166ZM8.2166 15.2709V15.2578H7.0166V15.2709H8.2166ZM8.2166 15.284V15.2709H7.0166V15.284H8.2166ZM8.2166 15.2971V15.284H7.0166V15.2971H8.2166ZM8.2166 15.3101V15.2971H7.0166V15.3101H8.2166ZM8.2166 15.323V15.3101H7.0166V15.323H8.2166ZM8.2166 15.336V15.323H7.0166V15.336H8.2166ZM8.2166 15.3489V15.336H7.0166V15.3489H8.2166ZM8.2166 15.3618V15.3489H7.0166V15.3618H8.2166ZM8.2166 15.3746V15.3618H7.0166V15.3746H8.2166ZM7.5166 15.9746H7.6166V14.7746H7.5166V15.9746ZM6.9166 15.3618V15.3746H8.1166V15.3618H6.9166ZM6.9166 15.3489V15.3618H8.1166V15.3489H6.9166ZM6.9166 15.336V15.3489H8.1166V15.336H6.9166ZM6.9166 15.323V15.336H8.1166V15.323H6.9166ZM6.9166 15.3101V15.323H8.1166V15.3101H6.9166ZM6.9166 15.2971V15.3101H8.1166V15.2971H6.9166ZM6.9166 15.284V15.2971H8.1166V15.284H6.9166ZM6.9166 15.2709V15.284H8.1166V15.2709H6.9166ZM6.9166 15.2578V15.2709H8.1166V15.2578H6.9166ZM6.9166 15.2447V15.2578H8.1166V15.2447H6.9166ZM6.9166 15.2315V15.2447H8.1166V15.2315H6.9166ZM6.9166 15.2182V15.2315H8.1166V15.2182H6.9166ZM6.9166 15.205V15.2182H8.1166V15.205H6.9166ZM6.9166 15.1917V15.205H8.1166V15.1917H6.9166ZM6.9166 15.1784V15.1917H8.1166V15.1784H6.9166ZM6.9166 15.165V15.1784H8.1166V15.165H6.9166ZM6.9166 15.1516V15.165H8.1166V15.1516H6.9166ZM6.9166 15.1382V15.1516H8.1166V15.1382H6.9166ZM6.9166 15.1248V15.1382H8.1166V15.1248H6.9166ZM6.9166 15.1113V15.1248H8.1166V15.1113H6.9166ZM6.9166 15.0977V15.1113H8.1166V15.0977H6.9166ZM6.9166 15.0842V15.0977H8.1166V15.0842H6.9166ZM6.9166 15.0706V15.0842H8.1166V15.0706H6.9166ZM6.9166 15.057V15.0706H8.1166V15.057H6.9166ZM6.9166 15.0433V15.057H8.1166V15.0433H6.9166ZM6.9166 15.0296V15.0433H8.1166V15.0296H6.9166ZM6.9166 15.0159V15.0296H8.1166V15.0159H6.9166ZM6.9166 15.0021V15.0159H8.1166V15.0021H6.9166ZM6.9166 14.9883V15.0021H8.1166V14.9883H6.9166ZM6.9166 14.9745V14.9883H8.1166V14.9745H6.9166ZM6.9166 14.9607V14.9745H8.1166V14.9607H6.9166ZM6.9166 14.9468V14.9607H8.1166V14.9468H6.9166ZM6.9166 14.9328V14.9468H8.1166V14.9328H6.9166ZM6.9166 14.9189V14.9328H8.1166V14.9189H6.9166ZM6.9166 14.9049V14.9189H8.1166V14.9049H6.9166ZM6.9166 14.8909V14.9049H8.1166V14.8909H6.9166ZM6.9166 14.8768V14.8909H8.1166V14.8768H6.9166ZM6.9166 14.8627V14.8768H8.1166V14.8627H6.9166ZM6.9166 14.8486V14.8627H8.1166V14.8486H6.9166ZM6.9166 14.8344V14.8486H8.1166V14.8344H6.9166ZM6.9166 14.8203V14.8344H8.1166V14.8203H6.9166ZM6.9166 14.806V14.8203H8.1166V14.806H6.9166ZM6.9166 14.7918V14.806H8.1166V14.7918H6.9166ZM6.9166 14.7775V14.7918H8.1166V14.7775H6.9166ZM6.9166 14.7632V14.7775H8.1166V14.7632H6.9166ZM6.9166 14.7488V14.7632H8.1166V14.7488H6.9166ZM6.9166 14.7344V14.7488H8.1166V14.7344H6.9166ZM6.9166 14.72V14.7344H8.1166V14.72H6.9166ZM6.9166 14.7055V14.72H8.1166V14.7055H6.9166ZM6.9166 14.6911V14.7055H8.1166V14.6911H6.9166ZM6.9166 14.6765V14.6911H8.1166V14.6765H6.9166ZM6.9166 14.662V14.6765H8.1166V14.662H6.9166ZM6.9166 14.6474V14.662H8.1166V14.6474H6.9166ZM6.9166 14.6328V14.6474H8.1166V14.6328H6.9166ZM6.9166 14.6181V14.6328H8.1166V14.6181H6.9166ZM6.9166 14.6035V14.6181H8.1166V14.6035H6.9166ZM6.9166 14.5888V14.6035H8.1166V14.5888H6.9166ZM6.9166 14.574V14.5888H8.1166V14.574H6.9166ZM6.9166 14.5592V14.574H8.1166V14.5592H6.9166ZM6.9166 14.5444V14.5592H8.1166V14.5444H6.9166ZM6.9166 14.5296V14.5444H8.1166V14.5296H6.9166ZM6.9166 14.5147V14.5296H8.1166V14.5147H6.9166ZM6.9166 14.4998V14.5147H8.1166V14.4998H6.9166ZM6.9166 14.4849V14.4998H8.1166V14.4849H6.9166ZM6.9166 14.4699V14.4849H8.1166V14.4699H6.9166ZM6.9166 14.4549V14.4699H8.1166V14.4549H6.9166ZM6.9166 14.4399V14.4549H8.1166V14.4399H6.9166ZM6.9166 14.4248V14.4399H8.1166V14.4248H6.9166ZM6.9166 14.4097V14.4248H8.1166V14.4097H6.9166ZM6.9166 14.3946V14.4097H8.1166V14.3946H6.9166ZM6.9166 14.3794V14.3946H8.1166V14.3794H6.9166ZM6.9166 14.3642V14.3794H8.1166V14.3642H6.9166ZM6.9166 14.349V14.3642H8.1166V14.349H6.9166ZM6.9166 14.3337V14.349H8.1166V14.3337H6.9166ZM6.9166 14.3184V14.3337H8.1166V14.3184H6.9166ZM6.9166 14.3031V14.3184H8.1166V14.3031H6.9166ZM6.9166 14.2878V14.3031H8.1166V14.2878H6.9166ZM6.9166 14.2724V14.2878H8.1166V14.2724H6.9166ZM6.9166 14.257V14.2724H8.1166V14.257H6.9166ZM6.9166 14.2415V14.257H8.1166V14.2415H6.9166ZM6.9166 14.226V14.2415H8.1166V14.226H6.9166ZM6.9166 14.2105V14.226H8.1166V14.2105H6.9166ZM6.9166 14.195V14.2105H8.1166V14.195H6.9166ZM6.9166 14.1794V14.195H8.1166V14.1794H6.9166ZM6.9166 14.1638V14.1794H8.1166V14.1638H6.9166ZM6.9166 14.1482V14.1638H8.1166V14.1482H6.9166ZM6.9166 14.1325V14.1482H8.1166V14.1325H6.9166ZM6.9166 14.1168V14.1325H8.1166V14.1168H6.9166ZM6.9166 14.1011V14.1168H8.1166V14.1011H6.9166ZM6.9166 14.0853V14.1011H8.1166V14.0853H6.9166ZM6.9166 14.0695V14.0853H8.1166V14.0695H6.9166ZM6.9166 14.0537V14.0695H8.1166V14.0537H6.9166ZM6.9166 14.0378V14.0537H8.1166V14.0378H6.9166ZM6.9166 14.022V14.0378H8.1166V14.022H6.9166ZM6.9166 14.006V14.022H8.1166V14.006H6.9166ZM6.9166 13.9901V14.006H8.1166V13.9901H6.9166ZM6.9166 13.9741V13.9901H8.1166V13.9741H6.9166ZM6.9166 13.9581V13.9741H8.1166V13.9581H6.9166ZM6.9166 13.9421V13.9581H8.1166V13.9421H6.9166ZM6.9166 13.926V13.9421H8.1166V13.926H6.9166ZM6.9166 13.9099V13.926H8.1166V13.9099H6.9166ZM6.9166 13.8938V13.9099H8.1166V13.8938H6.9166ZM6.9166 13.8776V13.8938H8.1166V13.8776H6.9166ZM6.9166 13.8614V13.8776H8.1166V13.8614H6.9166ZM6.9166 13.8452V13.8614H8.1166V13.8452H6.9166ZM6.9166 13.8289V13.8452H8.1166V13.8289H6.9166ZM6.9166 13.8126V13.8289H8.1166V13.8126H6.9166ZM6.9166 13.7963V13.8126H8.1166V13.7963H6.9166ZM6.9166 13.78V13.7963H8.1166V13.78H6.9166ZM6.9166 13.7636V13.78H8.1166V13.7636H6.9166ZM6.9166 13.7472V13.7636H8.1166V13.7472H6.9166ZM6.9166 13.7308V13.7472H8.1166V13.7308H6.9166ZM6.9166 13.7143V13.7308H8.1166V13.7143H6.9166ZM6.9166 13.6978V13.7143H8.1166V13.6978H6.9166ZM6.9166 13.6813V13.6978H8.1166V13.6813H6.9166ZM6.9166 13.6647V13.6813H8.1166V13.6647H6.9166ZM6.9166 13.6481V13.6647H8.1166V13.6481H6.9166ZM6.9166 13.6315V13.6481H8.1166V13.6315H6.9166ZM6.9166 13.6149V13.6315H8.1166V13.6149H6.9166ZM6.9166 13.5982V13.6149H8.1166V13.5982H6.9166ZM6.9166 13.5815V13.5982H8.1166V13.5815H6.9166ZM6.9166 13.5647V13.5815H8.1166V13.5647H6.9166ZM6.9166 13.548V13.5647H8.1166V13.548H6.9166ZM6.9166 13.5312V13.548H8.1166V13.5312H6.9166ZM6.9166 13.5143V13.5312H8.1166V13.5143H6.9166ZM6.9166 13.4975V13.5143H8.1166V13.4975H6.9166ZM6.9166 13.4806V13.4975H8.1166V13.4806H6.9166ZM6.9166 13.4637V13.4806H8.1166V13.4637H6.9166ZM6.9166 13.4467V13.4637H8.1166V13.4467H6.9166ZM6.9166 13.4297V13.4467H8.1166V13.4297H6.9166ZM6.9166 13.4127V13.4297H8.1166V13.4127H6.9166ZM6.9166 13.3957V13.4127H8.1166V13.3957H6.9166ZM6.9166 13.3786V13.3957H8.1166V13.3786H6.9166ZM6.9166 13.3615V13.3786H8.1166V13.3615H6.9166ZM6.9166 13.3444V13.3615H8.1166V13.3444H6.9166ZM6.9166 13.3273V13.3444H8.1166V13.3273H6.9166ZM6.9166 13.3101V13.3273H8.1166V13.3101H6.9166ZM6.9166 13.2929V13.3101H8.1166V13.2929H6.9166ZM6.9166 13.2756V13.2929H8.1166V13.2756H6.9166ZM6.9166 13.2583V13.2756H8.1166V13.2583H6.9166ZM6.9166 13.241V13.2583H8.1166V13.241H6.9166ZM6.9166 13.2237V13.241H8.1166V13.2237H6.9166ZM6.9166 13.2063V13.2237H8.1166V13.2063H6.9166ZM6.9166 13.189V13.2063H8.1166V13.189H6.9166ZM6.9166 13.1715V13.189H8.1166V13.1715H6.9166ZM6.9166 13.1541V13.1715H8.1166V13.1541H6.9166ZM6.9166 13.1366V13.1541H8.1166V13.1366H6.9166ZM6.9166 13.1191V13.1366H8.1166V13.1191H6.9166ZM6.9166 13.1016V13.1191H8.1166V13.1016H6.9166ZM6.9166 13.084V13.1016H8.1166V13.084H6.9166ZM6.9166 13.0664V13.084H8.1166V13.0664H6.9166ZM6.9166 13.0488V13.0664H8.1166V13.0488H6.9166ZM6.9166 13.0311V13.0488H8.1166V13.0311H6.9166ZM6.9166 13.0135V13.0311H8.1166V13.0135H6.9166ZM6.9166 12.9958V13.0135H8.1166V12.9958H6.9166ZM6.9166 12.978V12.9958H8.1166V12.978H6.9166ZM6.9166 12.9603V12.978H8.1166V12.9603H6.9166ZM6.9166 12.9425V12.9603H8.1166V12.9425H6.9166ZM6.9166 12.9246V12.9425H8.1166V12.9246H6.9166ZM6.9166 12.9068V12.9246H8.1166V12.9068H6.9166ZM6.9166 12.8889V12.9068H8.1166V12.8889H6.9166ZM6.9166 12.871V12.8889H8.1166V12.871H6.9166ZM6.9166 12.8531V12.871H8.1166V12.8531H6.9166ZM6.9166 12.8351V12.8531H8.1166V12.8351H6.9166ZM6.9166 12.8171V12.8351H8.1166V12.8171H6.9166ZM6.9166 12.7991V12.8171H8.1166V12.7991H6.9166ZM6.9166 12.781V12.7991H8.1166V12.781H6.9166ZM6.9166 12.7629V12.781H8.1166V12.7629H6.9166ZM6.9166 12.7448V12.7629H8.1166V12.7448H6.9166ZM6.9166 12.7267V12.7448H8.1166V12.7267H6.9166ZM6.9166 12.7085V12.7267H8.1166V12.7085H6.9166ZM6.9166 12.6903V12.7085H8.1166V12.6903H6.9166ZM6.9166 12.6721V12.6903H8.1166V12.6721H6.9166ZM6.9166 12.6539V12.6721H8.1166V12.6539H6.9166ZM6.9166 12.6356V12.6539H8.1166V12.6356H6.9166ZM6.9166 12.6173V12.6356H8.1166V12.6173H6.9166ZM6.9166 12.599V12.6173H8.1166V12.599H6.9166ZM6.9166 12.5806V12.599H8.1166V12.5806H6.9166ZM6.9166 12.5622V12.5806H8.1166V12.5622H6.9166ZM6.9166 12.5438V12.5622H8.1166V12.5438H6.9166ZM6.9166 12.5254V12.5438H8.1166V12.5254H6.9166ZM6.9166 12.5069V12.5254H8.1166V12.5069H6.9166ZM6.9166 12.4884V12.5069H8.1166V12.4884H6.9166ZM6.9166 12.4699V12.4884H8.1166V12.4699H6.9166ZM6.9166 12.4513V12.4699H8.1166V12.4513H6.9166ZM6.9166 12.4327V12.4513H8.1166V12.4327H6.9166ZM6.9166 12.4141V12.4327H8.1166V12.4141H6.9166ZM6.9166 12.3955V12.4141H8.1166V12.3955H6.9166ZM6.9166 12.3768V12.3955H8.1166V12.3768H6.9166ZM6.9166 12.3581V12.3768H8.1166V12.3581H6.9166ZM6.9166 12.3394V12.3581H8.1166V12.3394H6.9166ZM6.9166 12.3207V12.3394H8.1166V12.3207H6.9166ZM6.9166 12.3019V12.3207H8.1166V12.3019H6.9166ZM6.9166 12.2831V12.3019H8.1166V12.2831H6.9166ZM6.9166 12.2642V12.2831H8.1166V12.2642H6.9166ZM6.9166 12.2454V12.2642H8.1166V12.2454H6.9166ZM6.9166 12.2265V12.2454H8.1166V12.2265H6.9166ZM6.9166 12.2076V12.2265H8.1166V12.2076H6.9166ZM6.9166 12.1887V12.2076H8.1166V12.1887H6.9166ZM6.9166 12.1697V12.1887H8.1166V12.1697H6.9166ZM6.9166 12.1507V12.1697H8.1166V12.1507H6.9166ZM6.9166 12.1317V12.1507H8.1166V12.1317H6.9166ZM6.9166 12.1126V12.1317H8.1166V12.1126H6.9166ZM6.9166 12.0936V12.1126H8.1166V12.0936H6.9166ZM6.9166 12.0745V12.0936H8.1166V12.0745H6.9166ZM6.9166 12.0553V12.0745H8.1166V12.0553H6.9166ZM6.9166 12.0362V12.0553H8.1166V12.0362H6.9166ZM6.9166 12.017V12.0362H8.1166V12.017H6.9166ZM6.9166 11.9978V12.017H8.1166V11.9978H6.9166ZM6.9166 11.9785V11.9978H8.1166V11.9785H6.9166ZM6.9166 11.9593V11.9785H8.1166V11.9593H6.9166ZM6.9166 11.94V11.9593H8.1166V11.94H6.9166ZM6.9166 11.9207V11.94H8.1166V11.9207H6.9166ZM6.9166 11.9013V11.9207H8.1166V11.9013H6.9166ZM6.9166 11.882V11.9013H8.1166V11.882H6.9166ZM6.9166 11.8626V11.882H8.1166V11.8626H6.9166ZM6.9166 11.8432V11.8626H8.1166V11.8432H6.9166ZM6.9166 11.8237V11.8432H8.1166V11.8237H6.9166ZM6.9166 11.8042V11.8237H8.1166V11.8042H6.9166ZM6.9166 11.7847V11.8042H8.1166V11.7847H6.9166ZM6.9166 11.7652V11.7847H8.1166V11.7652H6.9166ZM6.9166 11.7457V11.7652H8.1166V11.7457H6.9166ZM6.9166 11.7261V11.7457H8.1166V11.7261H6.9166ZM6.9166 11.7065V11.7261H8.1166V11.7065H6.9166ZM6.9166 11.6868V11.7065H8.1166V11.6868H6.9166ZM6.9166 11.6672V11.6868H8.1166V11.6672H6.9166ZM6.9166 11.6475V11.6672H8.1166V11.6475H6.9166ZM6.9166 11.6278V11.6475H8.1166V11.6278H6.9166ZM6.9166 11.608V11.6278H8.1166V11.608H6.9166ZM6.9166 11.5883V11.608H8.1166V11.5883H6.9166ZM6.9166 11.5685V11.5883H8.1166V11.5685H6.9166ZM6.9166 11.5487V11.5685H8.1166V11.5487H6.9166ZM6.9166 11.5288V11.5487H8.1166V11.5288H6.9166ZM6.9166 11.509V11.5288H8.1166V11.509H6.9166ZM6.9166 11.4891V11.509H8.1166V11.4891H6.9166ZM6.9166 11.4692V11.4891H8.1166V11.4692H6.9166ZM6.9166 11.4492V11.4692H8.1166V11.4492H6.9166ZM6.9166 11.4292V11.4492H8.1166V11.4292H6.9166ZM6.9166 11.4092V11.4292H8.1166V11.4092H6.9166ZM6.9166 11.3892V11.4092H8.1166V11.3892H6.9166ZM6.9166 11.3692V11.3892H8.1166V11.3692H6.9166ZM6.9166 11.3491V11.3692H8.1166V11.3491H6.9166ZM6.9166 11.329V11.3491H8.1166V11.329H6.9166ZM6.9166 11.3089V11.329H8.1166V11.3089H6.9166ZM6.9166 11.2887V11.3089H8.1166V11.2887H6.9166ZM6.9166 11.2686V11.2887H8.1166V11.2686H6.9166ZM6.9166 11.2484V11.2686H8.1166V11.2484H6.9166ZM6.9166 11.2281V11.2484H8.1166V11.2281H6.9166ZM6.9166 11.2079V11.2281H8.1166V11.2079H6.9166ZM6.9166 11.1876V11.2079H8.1166V11.1876H6.9166ZM6.9166 11.1673V11.1876H8.1166V11.1673H6.9166ZM6.9166 11.147V11.1673H8.1166V11.147H6.9166ZM6.9166 11.1266V11.147H8.1166V11.1266H6.9166ZM6.9166 11.1063V11.1266H8.1166V11.1063H6.9166ZM6.9166 11.0859V11.1063H8.1166V11.0859H6.9166ZM6.9166 11.0654V11.0859H8.1166V11.0654H6.9166ZM6.9166 11.045V11.0654H8.1166V11.045H6.9166ZM6.9166 11.0245V11.045H8.1166V11.0245H6.9166ZM6.9166 11.004V11.0245H8.1166V11.004H6.9166ZM6.9166 10.9835V11.004H8.1166V10.9835H6.9166ZM6.9166 10.9629V10.9835H8.1166V10.9629H6.9166ZM6.9166 10.9423V10.9629H8.1166V10.9423H6.9166ZM6.9166 10.9217V10.9423H8.1166V10.9217H6.9166ZM6.9166 10.9011V10.9217H8.1166V10.9011H6.9166ZM6.9166 10.8805V10.9011H8.1166V10.8805H6.9166ZM6.9166 10.8598V10.8805H8.1166V10.8598H6.9166ZM6.9166 10.8391V10.8598H8.1166V10.8391H6.9166ZM6.9166 10.8184V10.8391H8.1166V10.8184H6.9166ZM6.9166 10.7976V10.8184H8.1166V10.7976H6.9166ZM6.9166 10.7768V10.7976H8.1166V10.7768H6.9166ZM6.9166 10.756V10.7768H8.1166V10.756H6.9166ZM6.9166 10.7352V10.756H8.1166V10.7352H6.9166ZM6.9166 10.7144V10.7352H8.1166V10.7144H6.9166ZM6.9166 10.6935V10.7144H8.1166V10.6935H6.9166ZM6.9166 10.6726V10.6935H8.1166V10.6726H6.9166ZM6.9166 10.6517V10.6726H8.1166V10.6517H6.9166ZM6.9166 10.6307V10.6517H8.1166V10.6307H6.9166ZM6.9166 10.6098V10.6307H8.1166V10.6098H6.9166ZM6.9166 10.5888V10.6098H8.1166V10.5888H6.9166ZM6.9166 10.5677V10.5888H8.1166V10.5677H6.9166ZM6.9166 10.5467V10.5677H8.1166V10.5467H6.9166ZM6.9166 10.5256V10.5467H8.1166V10.5256H6.9166ZM6.9166 10.5045V10.5256H8.1166V10.5045H6.9166ZM6.9166 10.4834V10.5045H8.1166V10.4834H6.9166ZM6.9166 10.4623V10.4834H8.1166V10.4623H6.9166ZM6.9166 10.4411V10.4623H8.1166V10.4411H6.9166ZM6.9166 10.4199V10.4411H8.1166V10.4199H6.9166ZM6.9166 10.3987V10.4199H8.1166V10.3987H6.9166ZM6.9166 10.3775V10.3987H8.1166V10.3775H6.9166ZM6.9166 10.3562V10.3775H8.1166V10.3562H6.9166ZM6.9166 10.335V10.3562H8.1166V10.335H6.9166ZM6.9166 10.3137V10.335H8.1166V10.3137H6.9166ZM6.9166 10.2923V10.3137H8.1166V10.2923H6.9166ZM6.9166 10.271V10.2923H8.1166V10.271H6.9166ZM6.9166 10.2496V10.271H8.1166V10.2496H6.9166ZM6.9166 10.2282V10.2496H8.1166V10.2282H6.9166ZM6.9166 10.2068V10.2282H8.1166V10.2068H6.9166ZM6.9166 10.1853V10.2068H8.1166V10.1853H6.9166ZM6.9166 10.1639V10.1853H8.1166V10.1639H6.9166ZM6.9166 10.1424V10.1639H8.1166V10.1424H6.9166ZM6.9166 10.1208V10.1424H8.1166V10.1208H6.9166ZM6.9166 10.0993V10.1208H8.1166V10.0993H6.9166ZM6.9166 10.0777V10.0993H8.1166V10.0777H6.9166ZM6.9166 10.0561V10.0777H8.1166V10.0561H6.9166ZM6.9166 10.0345V10.0561H8.1166V10.0345H6.9166ZM6.9166 10.0129V10.0345H8.1166V10.0129H6.9166ZM6.9166 9.99124V10.0129H8.1166V9.99124H6.9166ZM6.9166 9.96956V9.99124H8.1166V9.96956H6.9166ZM6.9166 9.94785V9.96956H8.1166V9.94785H6.9166ZM6.9166 9.92613V9.94785H8.1166V9.92613H6.9166ZM6.9166 9.90438V9.92613H8.1166V9.90438H6.9166ZM6.9166 9.8826V9.90438H8.1166V9.8826H6.9166ZM6.9166 9.86081V9.8826H8.1166V9.86081H6.9166ZM6.9166 9.83899V9.86081H8.1166V9.83899H6.9166ZM6.9166 9.81715V9.83899H8.1166V9.81715H6.9166ZM6.9166 9.79528V9.81715H8.1166V9.79528H6.9166ZM6.9166 9.77339V9.79528H8.1166V9.77339H6.9166ZM6.9166 9.75148V9.77339H8.1166V9.75148H6.9166ZM6.9166 9.72955V9.75148H8.1166V9.72955H6.9166ZM6.9166 9.70759V9.72955H8.1166V9.70759H6.9166ZM6.9166 9.68561V9.70759H8.1166V9.68561H6.9166ZM6.9166 9.66361V9.68561H8.1166V9.66361H6.9166ZM6.9166 9.64159V9.66361H8.1166V9.64159H6.9166ZM6.9166 9.61954V9.64159H8.1166V9.61954H6.9166ZM6.9166 9.59747V9.61954H8.1166V9.59747H6.9166ZM6.9166 9.57538V9.59747H8.1166V9.57538H6.9166ZM6.9166 9.55326V9.57538H8.1166V9.55326H6.9166ZM6.9166 9.53113V9.55326H8.1166V9.53113H6.9166ZM6.9166 9.50897V9.53113H8.1166V9.50897H6.9166ZM6.9166 9.48679V9.50897H8.1166V9.48679H6.9166ZM6.9166 9.46458V9.48679H8.1166V9.46458H6.9166ZM6.9166 9.44235V9.46458H8.1166V9.44235H6.9166ZM6.9166 9.42011V9.44235H8.1166V9.42011H6.9166ZM6.9166 9.39784V9.42011H8.1166V9.39784H6.9166ZM6.9166 9.37554V9.39784H8.1166V9.37554H6.9166ZM6.9166 9.35323V9.37554H8.1166V9.35323H6.9166ZM6.9166 9.33089V9.35323H8.1166V9.33089H6.9166ZM6.9166 9.30853V9.33089H8.1166V9.30853H6.9166ZM6.9166 9.28615V9.30853H8.1166V9.28615H6.9166ZM6.9166 9.26375V9.28615H8.1166V9.26375H6.9166ZM6.9166 9.24132V9.26375H8.1166V9.24132H6.9166ZM6.9166 9.21887V9.24132H8.1166V9.21887H6.9166ZM6.9166 9.1964V9.21887H8.1166V9.1964H6.9166ZM6.9166 9.17391V9.1964H8.1166V9.17391H6.9166ZM6.9166 9.1514V9.17391H8.1166V9.1514H6.9166ZM6.9166 9.12886V9.1514H8.1166V9.12886H6.9166ZM6.9166 9.10631V9.12886H8.1166V9.10631H6.9166ZM6.9166 9.08373V9.10631H8.1166V9.08373H6.9166ZM6.9166 9.06113V9.08373H8.1166V9.06113H6.9166ZM6.9166 9.03851V9.06113H8.1166V9.03851H6.9166ZM6.9166 9.01586V9.03851H8.1166V9.01586H6.9166ZM6.9166 8.9932V9.01586H8.1166V8.9932H6.9166ZM6.9166 8.97051V8.9932H8.1166V8.97051H6.9166ZM6.9166 8.94781V8.97051H8.1166V8.94781H6.9166ZM6.9166 8.92508V8.94781H8.1166V8.92508H6.9166ZM6.9166 8.90233V8.92508H8.1166V8.90233H6.9166ZM6.9166 8.87955V8.90233H8.1166V8.87955H6.9166ZM6.9166 8.85676V8.87955H8.1166V8.85676H6.9166ZM6.9166 8.83395V8.85676H8.1166V8.83395H6.9166ZM6.9166 8.81111V8.83395H8.1166V8.81111H6.9166ZM6.9166 8.78825V8.81111H8.1166V8.78825H6.9166ZM6.9166 8.76537V8.78825H8.1166V8.76537H6.9166ZM6.9166 8.74247V8.76537H8.1166V8.74247H6.9166ZM6.9166 8.71955V8.74247H8.1166V8.71955H6.9166ZM6.9166 8.69661V8.71955H8.1166V8.69661H6.9166ZM6.9166 8.67365V8.69661H8.1166V8.67365H6.9166ZM6.9166 8.65066V8.67365H8.1166V8.65066H6.9166ZM6.9166 8.62766V8.65066H8.1166V8.62766H6.9166ZM6.9166 8.60463V8.62766H8.1166V8.60463H6.9166ZM6.9166 8.58159V8.60463H8.1166V8.58159H6.9166ZM6.9166 8.55852V8.58159H8.1166V8.55852H6.9166ZM6.9166 8.53543V8.55852H8.1166V8.53543H6.9166ZM6.9166 8.51232V8.53543H8.1166V8.51232H6.9166ZM6.9166 8.48919V8.51232H8.1166V8.48919H6.9166ZM6.9166 8.46604V8.48919H8.1166V8.46604H6.9166ZM6.9166 8.44287V8.46604H8.1166V8.44287H6.9166ZM6.9166 8.41968V8.44287H8.1166V8.41968H6.9166ZM6.9166 8.39647V8.41968H8.1166V8.39647H6.9166ZM6.9166 8.37323V8.39647H8.1166V8.37323H6.9166ZM6.9166 8.34998V8.37323H8.1166V8.34998H6.9166ZM6.9166 8.3267V8.34998H8.1166V8.3267H6.9166ZM6.9166 8.30341V8.3267H8.1166V8.30341H6.9166ZM6.9166 8.28009V8.30341H8.1166V8.28009H6.9166ZM6.9166 8.25676V8.28009H8.1166V8.25676H6.9166ZM6.9166 8.2334V8.25676H8.1166V8.2334H6.9166ZM6.9166 8.21003V8.2334H8.1166V8.21003H6.9166ZM6.9166 8.18663V8.21003H8.1166V8.18663H6.9166ZM6.9166 8.16321V8.18663H8.1166V8.16321H6.9166ZM6.9166 8.13978V8.16321H8.1166V8.13978H6.9166ZM6.9166 8.11632V8.13978H8.1166V8.11632H6.9166ZM6.9166 8.09284V8.11632H8.1166V8.09284H6.9166ZM6.9166 8.06934V8.09284H8.1166V8.06934H6.9166ZM6.9166 8.04583V8.06934H8.1166V8.04583H6.9166ZM6.9166 8.02229V8.04583H8.1166V8.02229H6.9166ZM6.9166 7.99873V8.02229H8.1166V7.99873H6.9166ZM6.9166 7.97515V7.99873H8.1166V7.97515H6.9166ZM6.9166 7.95156V7.97515H8.1166V7.95156H6.9166ZM6.9166 7.92794V7.95156H8.1166V7.92794H6.9166ZM6.9166 7.9043V7.92794H8.1166V7.9043H6.9166ZM6.9166 7.88064V7.9043H8.1166V7.88064H6.9166ZM6.9166 7.85697V7.88064H8.1166V7.85697H6.9166ZM6.9166 7.83327V7.85697H8.1166V7.83327H6.9166ZM6.9166 7.80956V7.83327H8.1166V7.80956H6.9166ZM6.9166 7.78582V7.80956H8.1166V7.78582H6.9166ZM6.9166 7.76206V7.78582H8.1166V7.76206H6.9166ZM6.9166 7.73829V7.76206H8.1166V7.73829H6.9166ZM6.9166 7.71449V7.73829H8.1166V7.71449H6.9166ZM6.9166 7.69068V7.71449H8.1166V7.69068H6.9166ZM6.9166 7.66685V7.69068H8.1166V7.66685H6.9166ZM6.9166 7.64299V7.66685H8.1166V7.64299H6.9166ZM6.9166 7.61912V7.64299H8.1166V7.61912H6.9166ZM6.9166 7.59523V7.61912H8.1166V7.59523H6.9166ZM6.9166 7.57132V7.59523H8.1166V7.57132H6.9166ZM6.9166 7.54739V7.57132H8.1166V7.54739H6.9166ZM6.9166 7.52344V7.54739H8.1166V7.52344H6.9166ZM6.9166 7.49947V7.52344H8.1166V7.49947H6.9166ZM6.9166 7.47548V7.49947H8.1166V7.47548H6.9166ZM6.9166 7.45147V7.47548H8.1166V7.45147H6.9166ZM6.9166 7.42745V7.45147H8.1166V7.42745H6.9166ZM6.9166 7.4034V7.42745H8.1166V7.4034H6.9166ZM6.9166 7.37934V7.4034H8.1166V7.37934H6.9166ZM6.9166 7.35525V7.37934H8.1166V7.35525H6.9166ZM6.9166 7.33115V7.35525H8.1166V7.33115H6.9166ZM6.9166 7.30703V7.33115H8.1166V7.30703H6.9166ZM6.9166 7.28289V7.30703H8.1166V7.28289H6.9166ZM6.9166 7.25873V7.28289H8.1166V7.25873H6.9166ZM6.9166 7.23455V7.25873H8.1166V7.23455H6.9166ZM6.9166 7.21036V7.23455H8.1166V7.21036H6.9166ZM6.9166 7.18614V7.21036H8.1166V7.18614H6.9166ZM6.9166 7.16191V7.18614H8.1166V7.16191H6.9166ZM6.9166 7.13765V7.16191H8.1166V7.13765H6.9166ZM6.9166 7.11338V7.13765H8.1166V7.11338H6.9166ZM6.9166 7.08909V7.11338H8.1166V7.08909H6.9166ZM6.9166 7.06478V7.08909H8.1166V7.06478H6.9166ZM6.9166 7.04046V7.06478H8.1166V7.04046H6.9166ZM6.9166 7.01611V7.04046H8.1166V7.01611H6.9166ZM6.9166 6.99175V7.01611H8.1166V6.99175H6.9166ZM6.9166 6.96736V6.99175H8.1166V6.96736H6.9166ZM6.9166 6.94296V6.96736H8.1166V6.94296H6.9166ZM6.9166 6.91854V6.94296H8.1166V6.91854H6.9166ZM6.9166 6.8941V6.91854H8.1166V6.8941H6.9166ZM6.9166 6.86965V6.8941H8.1166V6.86965H6.9166ZM6.9166 6.84517V6.86965H8.1166V6.84517H6.9166ZM6.9166 6.82068V6.84517H8.1166V6.82068H6.9166ZM6.9166 6.79617V6.82068H8.1166V6.79617H6.9166ZM6.9166 6.77164V6.79617H8.1166V6.77164H6.9166ZM6.9166 6.7471V6.77164H8.1166V6.7471H6.9166ZM6.9166 6.72253V6.7471H8.1166V6.72253H6.9166ZM6.9166 6.69795V6.72253H8.1166V6.69795H6.9166ZM6.9166 6.67335V6.69795H8.1166V6.67335H6.9166ZM6.9166 6.64873V6.67335H8.1166V6.64873H6.9166ZM6.9166 6.62409V6.64873H8.1166V6.62409H6.9166ZM6.9166 6.59944V6.62409H8.1166V6.59944H6.9166ZM6.9166 6.57477V6.59944H8.1166V6.57477H6.9166ZM6.9166 6.55008V6.57477H8.1166V6.55008H6.9166ZM6.9166 6.52537V6.55008H8.1166V6.52537H6.9166ZM6.9166 6.50064V6.52537H8.1166V6.50064H6.9166ZM6.9166 6.4759V6.50064H8.1166V6.4759H6.9166ZM6.9166 6.45114V6.4759H8.1166V6.45114H6.9166ZM6.9166 6.42636V6.45114H8.1166V6.42636H6.9166ZM6.9166 6.40156V6.42636H8.1166V6.40156H6.9166ZM6.9166 6.37675V6.40156H8.1166V6.37675H6.9166ZM6.9166 6.35192V6.37675H8.1166V6.35192H6.9166ZM6.9166 6.32707V6.35192H8.1166V6.32707H6.9166ZM6.9166 6.3022V6.32707H8.1166V6.3022H6.9166ZM6.9166 6.27732V6.3022H8.1166V6.27732H6.9166ZM6.9166 6.25242V6.27732H8.1166V6.25242H6.9166ZM6.9166 6.2275V6.25242H8.1166V6.2275H6.9166ZM6.9166 6.20257V6.2275H8.1166V6.20257H6.9166ZM6.9166 6.17761V6.20257H8.1166V6.17761H6.9166ZM6.9166 6.15264V6.17761H8.1166V6.15264H6.9166ZM6.9166 6.12766V6.15264H8.1166V6.12766H6.9166ZM6.9166 6.10265V6.12766H8.1166V6.10265H6.9166ZM6.9166 6.07763V6.10265H8.1166V6.07763H6.9166ZM6.9166 6.05259V6.07763H8.1166V6.05259H6.9166ZM6.9166 6.02754V6.05259H8.1166V6.02754H6.9166ZM6.9166 6.00247V6.02754H8.1166V6.00247H6.9166ZM6.9166 5.97738V6.00247H8.1166V5.97738H6.9166ZM6.9166 5.95227V5.97738H8.1166V5.95227H6.9166ZM6.9166 5.92715V5.95227H8.1166V5.92715H6.9166ZM6.9166 5.90201V5.92715H8.1166V5.90201H6.9166ZM6.9166 5.87685V5.90201H8.1166V5.87685H6.9166ZM6.9166 5.85168V5.87685H8.1166V5.85168H6.9166ZM6.9166 5.82649V5.85168H8.1166V5.82649H6.9166ZM6.9166 5.80128V5.82649H8.1166V5.80128H6.9166ZM6.9166 5.77606V5.80128H8.1166V5.77606H6.9166ZM6.9166 5.75082V5.77606H8.1166V5.75082H6.9166ZM6.9166 5.72556V5.75082H8.1166V5.72556H6.9166ZM6.9166 5.70029V5.72556H8.1166V5.70029H6.9166ZM6.9166 5.675V5.70029H8.1166V5.675H6.9166ZM6.9166 5.64969V5.675H8.1166V5.64969H6.9166ZM6.9166 5.62437V5.64969H8.1166V5.62437H6.9166ZM6.9166 5.59903V5.62437H8.1166V5.59903H6.9166ZM6.9166 5.57367V5.59903H8.1166V5.57367H6.9166ZM6.9166 5.5483V5.57367H8.1166V5.5483H6.9166ZM6.9166 5.52291V5.5483H8.1166V5.52291H6.9166ZM6.9166 5.49751V5.52291H8.1166V5.49751H6.9166ZM6.9166 5.47209V5.49751H8.1166V5.47209H6.9166ZM6.9166 5.44665V5.47209H8.1166V5.44665H6.9166ZM6.9166 5.4212V5.44665H8.1166V5.4212H6.9166ZM6.9166 5.39573V5.4212H8.1166V5.39573H6.9166ZM6.9166 5.37025V5.39573H8.1166V5.37025H6.9166ZM6.9166 5.34474V5.37025H8.1166V5.34474H6.9166ZM6.9166 5.31923V5.34474H8.1166V5.31923H6.9166ZM6.9166 5.29369V5.31923H8.1166V5.29369H6.9166ZM6.9166 5.26815V5.29369H8.1166V5.26815H6.9166ZM6.9166 5.24258V5.26815H8.1166V5.24258H6.9166ZM6.9166 5.217V5.24258H8.1166V5.217H6.9166ZM6.9166 5.1914V5.217H8.1166V5.1914H6.9166ZM6.9166 5.16579V5.1914H8.1166V5.16579H6.9166ZM6.9166 5.14016V5.16579H8.1166V5.14016H6.9166ZM6.9166 5.11452V5.14016H8.1166V5.11452H6.9166ZM9.59425 2.25254C8.06302 2.25254 6.9166 3.58864 6.9166 5.11452H8.1166C8.1166 4.15025 8.82256 3.45254 9.59425 3.45254V2.25254ZM13.079 2.25254H9.59425V3.45254H13.079V2.25254ZM13.679 2.95254V2.85254H12.479V2.95254H13.679ZM9.59425 3.55254H13.079V2.35254H9.59425V3.55254Z" fill="black"/>
<path d="M19.6891 6.50562C19.7012 5.79224 19.4178 5.05161 18.8476 4.48136C18.2786 3.91237 17.54 3.62899 16.828 3.63975" stroke="black" stroke-width="1.2" stroke-linecap="round" stroke-linejoin="round"/>
<path d="M22.2845 6.54018C22.2462 5.18714 21.6807 3.80477 20.6028 2.72683C19.5355 1.65954 18.1698 1.09471 16.8296 1.04639" stroke="black" stroke-width="1.2" stroke-linecap="round" stroke-linejoin="round"/>
<path d="M1 17.1984L4.21428 11.9449C4.21428 11.9449 4.92065 10.4932 7.56668 10.4932" stroke="black" stroke-width="1.2" stroke-linecap="round" stroke-linejoin="round"/>
<path d="M6.40904 15.8391H8.37895C8.37895 15.8391 8.8095 15.8277 9.34683 15.2515C9.88416 14.6753 10.8853 13.6271 10.8853 13.6271C10.8853 13.6271 12.0968 12.8065 13.2011 13.6271C14.3053 14.4477 13.7539 15.8391 13.7539 15.8391L11.6456 19.6135C11.6456 19.6135 10.6089 21.2926 9.22627 21.7218C7.84365 22.151 5.73535 23.0005 5.73535 23.0005" stroke="black" stroke-width="1.2" stroke-linecap="round" stroke-linejoin="round"/>
<path d="M13.6498 6.41507H14.7557" stroke="black" stroke-width="1.2" stroke-linecap="round" stroke-linejoin="round"/>
</g>
</svg>
