<svg width="24" height="24" viewBox="0 0 24 24" fill="none" xmlns="http://www.w3.org/2000/svg">
<path fill-rule="evenodd" clip-rule="evenodd" d="M7.03147 13.9116C6.11247 12.9926 5.60547 11.7696 5.60547 10.4696C5.60547 9.16864 6.11247 7.94664 7.03147 7.02764C7.98047 6.07864 9.22747 5.60364 10.4735 5.60364C11.7205 5.60364 12.9665 6.07864 13.9165 7.02764C14.8355 7.94664 15.3415 9.16864 15.3415 10.4696C15.3415 11.7696 14.8355 12.9926 13.9165 13.9116C12.0175 15.8086 8.92947 15.8086 7.03147 13.9116ZM20.296 18.8036L16.087 14.5946C16.965 13.4046 17.446 11.9756 17.446 10.4696C17.446 8.60663 16.721 6.85563 15.404 5.53963C12.685 2.82062 8.261 2.81963 5.543 5.53963C4.225 6.85563 3.5 8.60663 3.5 10.4696C3.5 12.3326 4.225 14.0836 5.543 15.3996C6.902 16.7596 8.687 17.4396 10.473 17.4396C11.926 17.4396 13.374 16.9816 14.597 16.0816L18.807 20.2916C19.013 20.4976 19.282 20.5996 19.551 20.5996C19.821 20.5996 20.09 20.4976 20.296 20.2916C20.707 19.8806 20.707 19.2146 20.296 18.8036Z" fill="white"/>
</svg>
